<svg xmlns="http://www.w3.org/2000/svg" width="22" height="24" viewBox="0 0 22 24" fill="none">
  <path d="M4.11731 3.6761L10.6665 0L17.2156 3.6761L14.8078 5.03415L10.6665 2.7161L6.52509 5.03415L4.11731 3.6761ZM17.2156 8.31219L14.8078 6.95415L10.6665 9.2722L6.52509 6.95415L4.11731 8.31219V11.0283L8.25868 13.3463V17.9824L10.6665 19.3405L13.0743 17.9824V13.3463L17.2156 11.0283V8.31219ZM17.2156 15.6644V12.9483L14.8078 14.3063V17.0224L17.2156 15.6644ZM18.9251 16.6244L14.7838 18.9424V21.6585L21.3329 17.9824V10.6302L18.9251 11.9883V16.6244ZM16.5174 5.99415L18.9251 7.35219V10.0683L21.3329 8.71024V5.99415L18.9251 4.6361L16.5174 5.99415ZM8.25868 19.9259V22.642L10.6665 24L13.0743 22.642V19.9259L10.6665 21.2839L8.25868 19.9259ZM4.11731 15.6644L6.52509 17.0224V14.3063L4.11731 12.9483V15.6644ZM8.25868 5.99415L10.6665 7.35219L13.0743 5.99415L10.6665 4.6361L8.25868 5.99415ZM2.40777 7.35219L4.81555 5.99415L2.40777 4.6361L0 5.99415V8.71024L2.40777 10.0683V7.35219ZM2.40777 11.9883L0 10.6302V17.9824L6.54914 21.6585V18.9424L2.40777 16.6244V11.9883Z" fill="#333333"/>
</svg>
