<svg xmlns="http://www.w3.org/2000/svg" width="64" height="64" viewBox="0 0 64 64" fill="none">
  <path d="M55.2746 8.16248H8.78711C6.16836 8.16248 4.03711 10.2937 4.03711 12.9125V51.2437C4.03711 53.8625 6.16836 55.9937 8.78711 55.9937H55.2746C57.8934 55.9937 60.0246 53.8625 60.0246 51.2437V12.9125C60.0246 10.2937 57.8934 8.16248 55.2746 8.16248ZM8.78711 12.6625H55.2746C55.4121 12.6625 55.5246 12.775 55.5246 12.9125V36.1187L49.7496 28.8562C48.3934 27.15 46.3684 26.125 44.1996 26.0437C42.0309 25.9625 39.9434 26.8375 38.4684 28.4375L28.3746 39.375C28.1996 39.5625 27.9246 39.5937 27.7184 39.4562L21.2809 35.0625C19.3121 33.7187 16.7309 33.6562 14.6996 34.8937L8.53711 38.65V12.9125C8.53711 12.775 8.64961 12.6625 8.78711 12.6625ZM55.2746 51.4937H8.78711C8.64961 51.4937 8.53711 51.3812 8.53711 51.2437V43.9187L17.0434 38.7312C17.5684 38.4125 18.2371 38.4312 18.7434 38.775L25.1809 43.1687C26.1746 43.8437 27.3746 44.1437 28.5684 44.0062C29.7559 43.8687 30.8621 43.3062 31.6809 42.425L41.7809 31.4875C42.3746 30.8437 43.1746 30.5062 44.0434 30.5437C44.9121 30.575 45.6871 30.9687 46.2371 31.6562L55.5309 43.3437V51.2375C55.5246 51.3812 55.4121 51.4937 55.2746 51.4937Z" fill="#848E9C"/>
  <path d="M14.4919 25.0396C14.8959 25.4435 15.3754 25.764 15.9032 25.9826C16.4309 26.2011 16.9966 26.3137 17.5679 26.3136C18.1391 26.3136 18.7048 26.2011 19.2325 25.9825C19.7603 25.7639 20.2398 25.4434 20.6437 25.0395C21.0477 24.6356 21.3681 24.156 21.5867 23.6283C21.8053 23.1005 21.9178 22.5348 21.9178 21.9636C21.9178 21.3923 21.8052 20.8267 21.5866 20.2989C21.368 19.7711 21.0476 19.2916 20.6436 18.8877C20.2397 18.4838 19.7601 18.1633 19.2324 17.9447C18.7046 17.7261 18.1389 17.6136 17.5677 17.6136C16.414 17.6137 15.3076 18.072 14.4918 18.8878C13.676 19.7036 13.2178 20.81 13.2178 21.9637C13.2178 23.1174 13.6761 24.2238 14.4919 25.0396Z" fill="#848E9C"/>
</svg>
