<svg xmlns="http://www.w3.org/2000/svg" width="24" height="24" viewBox="0 0 24 24" fill="none">
  <mask id="mask0_1261_4643" style="mask-type:alpha" maskUnits="userSpaceOnUse" x="0" y="0" width="24" height="24">
    <circle cx="12" cy="12" r="12" fill="white"/>
  </mask>
  <g mask="url(#mask0_1261_4643)">
    <path fill-rule="evenodd" clip-rule="evenodd" d="M12.0001 12.0004L-4.97266 11.8957L-4.9573 11.2717L12.0001 12.0004Z" fill="#FEFEFF"/>
    <path fill-rule="evenodd" clip-rule="evenodd" d="M11.9994 11.9999L-4.96094 11.3749L-4.93502 10.8546L11.9994 11.9999Z" fill="#FDFEFF"/>
    <path fill-rule="evenodd" clip-rule="evenodd" d="M11.9997 12.0004L-4.94043 10.9598L-4.90203 10.4404L11.9997 12.0004Z" fill="#FCFDFF"/>
    <path fill-rule="evenodd" clip-rule="evenodd" d="M11.9993 12.0002L-4.91016 10.5439L-4.85928 10.0255L11.9993 12.0002Z" fill="#FBFCFF"/>
    <path fill-rule="evenodd" clip-rule="evenodd" d="M12 11.9999L-4.86816 10.1289L-4.8048 9.61243L12 11.9999Z" fill="#FAFCFF"/>
    <path fill-rule="evenodd" clip-rule="evenodd" d="M11.9999 11.9998L-4.81738 9.71596L-4.74154 9.20044L11.9999 11.9998Z" fill="#F9FBFF"/>
    <path fill-rule="evenodd" clip-rule="evenodd" d="M12 12.0003L-4.75586 9.30365L-4.66754 8.79102L12 12.0003Z" fill="#F8FAFF"/>
    <path fill-rule="evenodd" clip-rule="evenodd" d="M11.9993 12.0003L-4.68555 8.89378L-4.58475 8.38306L11.9993 12.0003Z" fill="#F7FAFF"/>
    <path fill-rule="evenodd" clip-rule="evenodd" d="M11.9997 11.9999L-4.60449 8.48536L-4.49025 7.97656L11.9997 11.9999Z" fill="#F6F9FF"/>
    <path fill-rule="evenodd" clip-rule="evenodd" d="M11.9993 11.9999L-4.51367 8.07832L-4.38695 7.57336L11.9993 11.9999Z" fill="#F5F8FF"/>
    <path fill-rule="evenodd" clip-rule="evenodd" d="M12.0001 11.9998L-4.41113 7.67408L-4.27289 7.172L12.0001 11.9998Z" fill="#F4F8FF"/>
    <path fill-rule="evenodd" clip-rule="evenodd" d="M12 11.9999L-4.30078 7.2729L-4.1491 6.77466L12 11.9999Z" fill="#F3F7FF"/>
    <path fill-rule="evenodd" clip-rule="evenodd" d="M11.9992 11.9997L-4.18066 6.87428L-4.0165 6.37988L11.9992 11.9997Z" fill="#F2F6FF"/>
    <path fill-rule="evenodd" clip-rule="evenodd" d="M11.9995 11.9999L-4.0498 6.47896L-3.87412 5.9884L11.9995 11.9999Z" fill="#F1F6FF"/>
    <path fill-rule="evenodd" clip-rule="evenodd" d="M12 11.9999L-3.9082 6.08635L-3.721 5.60059L12 11.9999Z" fill="#F0F5FF"/>
    <path fill-rule="evenodd" clip-rule="evenodd" d="M11.9986 12.0002L-3.75977 5.69776L-3.56105 5.2168L11.9986 12.0002Z" fill="#EFF4FF"/>
    <path fill-rule="evenodd" clip-rule="evenodd" d="M11.9994 12.0007L-3.59961 5.31334L-3.38841 4.83813L11.9994 12.0007Z" fill="#EEF3FF"/>
    <path fill-rule="evenodd" clip-rule="evenodd" d="M11.9994 12L-3.43066 4.93244L-3.20794 4.46204L11.9994 12Z" fill="#EDF3FF"/>
    <path fill-rule="evenodd" clip-rule="evenodd" d="M11.9996 12.0005L-3.25293 4.55666L-3.01869 4.09106L11.9996 12.0005Z" fill="#ECF2FF"/>
    <path fill-rule="evenodd" clip-rule="evenodd" d="M11.9999 12.0001L-3.06543 4.18373L-2.81967 3.72485L11.9999 12.0001Z" fill="#EBF1FF"/>
    <path fill-rule="evenodd" clip-rule="evenodd" d="M11.9993 12.0005L-2.86914 3.81748L-2.61282 3.3634L11.9993 12.0005Z" fill="#EAF1FF"/>
    <path fill-rule="evenodd" clip-rule="evenodd" d="M12 12.0001L-2.66309 3.45421L-2.39525 3.00781L12 12.0001Z" fill="#E9F0FF"/>
    <path fill-rule="evenodd" clip-rule="evenodd" d="M11.9997 11.9999L-2.44922 3.09689L-2.17082 2.65625L11.9997 11.9999Z" fill="#E8EFFF"/>
    <path fill-rule="evenodd" clip-rule="evenodd" d="M11.9997 12L-2.22656 2.74461L-1.93664 2.31165L11.9997 12Z" fill="#E7EFFF"/>
    <path fill-rule="evenodd" clip-rule="evenodd" d="M11.9998 12.0001L-1.99512 2.39818L-1.6956 1.9729L11.9998 12.0001Z" fill="#E6EEFF"/>
    <path fill-rule="evenodd" clip-rule="evenodd" d="M11.999 12L-1.75586 2.05821L-1.44578 1.63965L11.999 12Z" fill="#E5EDFF"/>
    <path fill-rule="evenodd" clip-rule="evenodd" d="M11.9994 12.0003L-1.50781 1.7235L-1.18717 1.31262L11.9994 12.0003Z" fill="#E4EDFF"/>
    <path fill-rule="evenodd" clip-rule="evenodd" d="M11.9989 11.9995L-1.25195 1.39443L-0.921713 0.992188L11.9989 11.9995Z" fill="#E3ECFF"/>
    <path fill-rule="evenodd" clip-rule="evenodd" d="M11.9996 12L-0.986328 1.07327L-0.646488 0.678711L11.9996 12Z" fill="#E2EBFF"/>
    <path fill-rule="evenodd" clip-rule="evenodd" d="M11.9994 11.9996L-0.714844 0.757014L-0.365404 0.371094L11.9994 11.9996Z" fill="#E1EBFF"/>
    <path fill-rule="evenodd" clip-rule="evenodd" d="M11.9993 12.0003L-0.435547 0.449546L-0.0765068 0.0722656L11.9993 12.0003Z" fill="#E0EAFF"/>
    <path fill-rule="evenodd" clip-rule="evenodd" d="M11.9994 12.0001L-0.148438 0.147937L0.220203 -0.220703L11.9994 12.0001Z" fill="#DFE9FF"/>
    <path fill-rule="evenodd" clip-rule="evenodd" d="M11.9996 12.0003L0.147461 -0.147535L0.523781 -0.505615L11.9996 12.0003Z" fill="#DEE9FF"/>
    <path fill-rule="evenodd" clip-rule="evenodd" d="M11.9999 12.0004L0.449219 -0.434496L0.835139 -0.783936L11.9999 12.0004Z" fill="#DDE8FF"/>
    <path fill-rule="evenodd" clip-rule="evenodd" d="M11.9994 12.0006L0.756836 -0.713627L1.1514 -1.05347L11.9994 12.0006Z" fill="#DCE7FF"/>
    <path fill-rule="evenodd" clip-rule="evenodd" d="M12 11.9998L1.07324 -0.986166L1.47548 -1.31641L12 11.9998Z" fill="#DBE7FF"/>
    <path fill-rule="evenodd" clip-rule="evenodd" d="M11.9997 12.0004L1.39453 -1.25051L1.80541 -1.57019L11.9997 12.0004Z" fill="#DAE6FF"/>
    <path fill-rule="evenodd" clip-rule="evenodd" d="M11.9995 11.9999L1.72266 -1.5073L2.14122 -1.81738L11.9995 11.9999Z" fill="#D9E5FF"/>
    <path fill-rule="evenodd" clip-rule="evenodd" d="M11.9994 11.9997L2.05762 -1.75517L2.4829 -2.05469L11.9994 11.9997Z" fill="#D8E5FF"/>
    <path fill-rule="evenodd" clip-rule="evenodd" d="M11.9994 11.9999L2.39746 -1.99498L2.83042 -2.28394L11.9994 11.9999Z" fill="#D7E4FF"/>
    <path fill-rule="evenodd" clip-rule="evenodd" d="M11.9995 11.9999L2.74414 -2.22636L3.18478 -2.50476L11.9995 11.9999Z" fill="#D6E3FF"/>
    <path fill-rule="evenodd" clip-rule="evenodd" d="M11.9987 12L3.0957 -2.44896L3.5421 -2.7168L11.9987 12Z" fill="#D5E3FF"/>
    <path fill-rule="evenodd" clip-rule="evenodd" d="M12 12.0004L3.4541 -2.66263L3.90722 -2.91895L12 12.0004Z" fill="#D4E2FF"/>
    <path fill-rule="evenodd" clip-rule="evenodd" d="M11.9994 12.0001L3.81641 -2.86838L4.27529 -3.11414L11.9994 12.0001Z" fill="#D3E1FF"/>
    <path fill-rule="evenodd" clip-rule="evenodd" d="M11.9999 11.9999L4.18359 -3.06543L4.64919 -3.29871L11.9999 11.9999Z" fill="#D2E0FF"/>
    <path fill-rule="evenodd" clip-rule="evenodd" d="M11.9995 11.9998L4.55566 -3.25273L5.02606 -3.47449L11.9995 11.9998Z" fill="#D1E0FF"/>
    <path fill-rule="evenodd" clip-rule="evenodd" d="M11.9992 11.9998L4.93164 -3.43028L5.4078 -3.64148L11.9992 11.9998Z" fill="#D0DFFF"/>
    <path fill-rule="evenodd" clip-rule="evenodd" d="M11.9999 12.0001L5.3125 -3.5989L5.79442 -3.79858L11.9999 12.0001Z" fill="#CFDEFF"/>
    <path fill-rule="evenodd" clip-rule="evenodd" d="M11.9997 12.0005L5.69727 -3.75787L6.18399 -3.94507L11.9997 12.0005Z" fill="#CEDEFF"/>
    <path fill-rule="evenodd" clip-rule="evenodd" d="M11.9995 12L6.08594 -3.90818L6.5765 -4.08386L11.9995 12Z" fill="#CDDDFF"/>
    <path fill-rule="evenodd" clip-rule="evenodd" d="M11.9995 11.9999L6.47852 -4.04943L6.97292 -4.21167L11.9995 11.9999Z" fill="#CCDCFF"/>
    <path fill-rule="evenodd" clip-rule="evenodd" d="M11.9995 12.0006L6.87402 -4.17924L7.37226 -4.32996L11.9995 12.0006Z" fill="#CBDCFF"/>
    <path fill-rule="evenodd" clip-rule="evenodd" d="M11.9995 11.9996L7.27246 -4.30121L7.77454 -4.43945L11.9995 11.9996Z" fill="#CADBFF"/>
    <path fill-rule="evenodd" clip-rule="evenodd" d="M11.9996 12L7.67383 -4.41124L8.17879 -4.53796L11.9996 12Z" fill="#C9DAFF"/>
    <path fill-rule="evenodd" clip-rule="evenodd" d="M11.9997 12.0004L8.07812 -4.51257L8.58597 -4.62585L11.9997 12.0004Z" fill="#C8DAFF"/>
    <path fill-rule="evenodd" clip-rule="evenodd" d="M11.9999 12L8.48535 -4.60416L8.99511 -4.70496L11.9999 12Z" fill="#C7D9FF"/>
    <path fill-rule="evenodd" clip-rule="evenodd" d="M11.9991 11.9999L8.89258 -4.68489L9.40522 -4.77417L11.9991 11.9999Z" fill="#C6D8FF"/>
    <path fill-rule="evenodd" clip-rule="evenodd" d="M11.9994 11.9999L9.30273 -4.75596L9.81825 -4.83276L11.9994 11.9999Z" fill="#C5D8FF"/>
    <path fill-rule="evenodd" clip-rule="evenodd" d="M11.9997 11.9999L9.71582 -4.81738L10.2323 -4.88074L11.9997 11.9999Z" fill="#C4D7FF"/>
    <path fill-rule="evenodd" clip-rule="evenodd" d="M11.9999 12.0002L10.1289 -4.86794L10.6473 -4.91882L11.9999 12.0002Z" fill="#C3D6FF"/>
    <path fill-rule="evenodd" clip-rule="evenodd" d="M12.0003 11.9997L10.5439 -4.90972L11.0633 -4.94812L12.0003 11.9997Z" fill="#C2D6FF"/>
    <path fill-rule="evenodd" clip-rule="evenodd" d="M11.9996 12.0005L10.959 -4.93964L11.4793 -4.9646L11.9996 12.0005Z" fill="#C1D5FF"/>
    <path fill-rule="evenodd" clip-rule="evenodd" d="M12 12.0001L11.375 -4.96018L11.8953 -4.97266L12 12.0001Z" fill="#C0D4FF"/>
    <path fill-rule="evenodd" clip-rule="evenodd" d="M11.9993 12.0004L11.791 -4.97046H12.3113L11.9993 12.0004Z" fill="#BFD4FF"/>
    <path fill-rule="evenodd" clip-rule="evenodd" d="M12 12.0004L12.2083 -4.97046L12.7286 -4.95702L12 12.0004Z" fill="#BED3FF"/>
    <path fill-rule="evenodd" clip-rule="evenodd" d="M12 12.0005L12.625 -4.95984L13.1443 -4.93392L12 12.0005Z" fill="#BDD2FF"/>
    <path fill-rule="evenodd" clip-rule="evenodd" d="M12 11.9997L13.0406 -4.94043L13.56 -4.90203L12 11.9997Z" fill="#BCD2FF"/>
    <path fill-rule="evenodd" clip-rule="evenodd" d="M12 12.0005L13.4563 -4.90894L13.9747 -4.85806L12 12.0005Z" fill="#BBD1FF"/>
    <path fill-rule="evenodd" clip-rule="evenodd" d="M12 12.0002L13.8701 -4.86792L14.3875 -4.80456L12 12.0002Z" fill="#BAD0FF"/>
    <path fill-rule="evenodd" clip-rule="evenodd" d="M12 11.9999L14.2838 -4.81738L14.7994 -4.74154L12 11.9999Z" fill="#B9D0FF"/>
    <path fill-rule="evenodd" clip-rule="evenodd" d="M12 12L14.6957 -4.75586L15.2093 -4.66754L12 12Z" fill="#B8CFFF"/>
    <path fill-rule="evenodd" clip-rule="evenodd" d="M12 12.0004L15.1066 -4.68445L15.6173 -4.58365L12 12.0004Z" fill="#B7CEFF"/>
    <path fill-rule="evenodd" clip-rule="evenodd" d="M12 11.9999L15.5146 -4.60425L16.0234 -4.49001L12 11.9999Z" fill="#B6CDFF"/>
    <path fill-rule="evenodd" clip-rule="evenodd" d="M12 12.0003L15.9216 -4.5127L16.4266 -4.38597L12 12.0003Z" fill="#B5CDFF"/>
    <path fill-rule="evenodd" clip-rule="evenodd" d="M12 12.0003L16.3258 -4.41089L16.8269 -4.27265L12 12.0003Z" fill="#B4CCFF"/>
    <path fill-rule="evenodd" clip-rule="evenodd" d="M12 12.0001L16.727 -4.30066L17.2253 -4.14898L12 12.0001Z" fill="#B3CBFF"/>
    <path fill-rule="evenodd" clip-rule="evenodd" d="M12 12.0004L17.1254 -4.17944L17.6198 -4.01528L12 12.0004Z" fill="#B2CBFF"/>
    <path fill-rule="evenodd" clip-rule="evenodd" d="M12 12.0006L17.521 -4.04871L18.0115 -3.87303L12 12.0006Z" fill="#B1CAFF"/>
    <path fill-rule="evenodd" clip-rule="evenodd" d="M12 12.0001L17.9136 -3.90808L18.3994 -3.72088L12 12.0001Z" fill="#B0C9FF"/>
    <path fill-rule="evenodd" clip-rule="evenodd" d="M12 11.9997L18.3014 -3.75867L18.7834 -3.55995L12 11.9997Z" fill="#AFC9FF"/>
    <path fill-rule="evenodd" clip-rule="evenodd" d="M12 12.0004L18.6864 -3.59863L19.1626 -3.38743L12 12.0004Z" fill="#AEC8FF"/>
    <path fill-rule="evenodd" clip-rule="evenodd" d="M12 12.0006L19.0675 -3.42944L19.5379 -3.20672L12 12.0006Z" fill="#ADC7FF"/>
    <path fill-rule="evenodd" clip-rule="evenodd" d="M12 11.9996L19.4438 -3.25293L19.9094 -3.01869L12 11.9996Z" fill="#ACC7FF"/>
    <path fill-rule="evenodd" clip-rule="evenodd" d="M12 11.9999L19.8163 -3.06543L20.2752 -2.81967L12 11.9999Z" fill="#ABC6FF"/>
    <path fill-rule="evenodd" clip-rule="evenodd" d="M12 12.0004L20.183 -2.86804L20.6371 -2.61172L12 12.0004Z" fill="#AAC5FF"/>
    <path fill-rule="evenodd" clip-rule="evenodd" d="M12 12.0001L20.5459 -2.66296L20.9923 -2.39512L12 12.0001Z" fill="#A9C5FF"/>
    <path fill-rule="evenodd" clip-rule="evenodd" d="M12 11.9999L20.903 -2.4491L21.3427 -2.1707L12 11.9999Z" fill="#A8C4FF"/>
    <path fill-rule="evenodd" clip-rule="evenodd" d="M12 11.9998L21.2554 -2.22644L21.6883 -1.93652L12 11.9998Z" fill="#A7C3FF"/>
    <path fill-rule="evenodd" clip-rule="evenodd" d="M12 11.9999L21.6019 -1.995L22.0272 -1.69548L12 11.9999Z" fill="#A6C3FF"/>
    <path fill-rule="evenodd" clip-rule="evenodd" d="M12 12.0001L21.9418 -1.75476L22.3603 -1.44468L12 12.0001Z" fill="#A5C2FF"/>
    <path fill-rule="evenodd" clip-rule="evenodd" d="M12 12.0004L22.2768 -1.50684L22.6867 -1.1862L12 12.0004Z" fill="#A4C1FF"/>
    <path fill-rule="evenodd" clip-rule="evenodd" d="M12 12L22.6051 -1.25085L23.0074 -0.920614L12 12Z" fill="#A3C1FF"/>
    <path fill-rule="evenodd" clip-rule="evenodd" d="M12 11.9998L22.9267 -0.986084L23.3213 -0.646244L12 11.9998Z" fill="#A2C0FF"/>
    <path fill-rule="evenodd" clip-rule="evenodd" d="M12 12.0006L23.2426 -0.713623L23.6285 -0.364183L12 12.0006Z" fill="#A1BFFF"/>
    <path fill-rule="evenodd" clip-rule="evenodd" d="M12 12.0003L23.5507 -0.43457L23.928 -0.0755303L12 12.0003Z" fill="#A0BFFF"/>
    <path fill-rule="evenodd" clip-rule="evenodd" d="M12 12.0004L23.8522 -0.147461L24.2208 0.221179L12 12.0004Z" fill="#9FBEFF"/>
    <path fill-rule="evenodd" clip-rule="evenodd" d="M12 11.9999L24.1469 0.147705L24.5059 0.524025L12 11.9999Z" fill="#9EBDFF"/>
    <path fill-rule="evenodd" clip-rule="evenodd" d="M12 12.0002L24.4349 0.449463L24.7843 0.835383L12 12.0002Z" fill="#9DBDFF"/>
    <path fill-rule="evenodd" clip-rule="evenodd" d="M12 12.0004L24.7142 0.757812L25.0541 1.15237L12 12.0004Z" fill="#9CBCFF"/>
    <path fill-rule="evenodd" clip-rule="evenodd" d="M12 12.0002L24.9859 1.07349L25.3162 1.47573L12 12.0002Z" fill="#9BBBFF"/>
    <path fill-rule="evenodd" clip-rule="evenodd" d="M12 11.9998L25.2509 1.39465L25.5706 1.80553L12 11.9998Z" fill="#9ABAFF"/>
    <path fill-rule="evenodd" clip-rule="evenodd" d="M12 12.0007L25.5072 1.72388L25.8173 2.14244L12 12.0007Z" fill="#99BAFF"/>
    <path fill-rule="evenodd" clip-rule="evenodd" d="M12 12.0004L25.7549 2.05859L26.0544 2.48387L12 12.0004Z" fill="#98B9FF"/>
    <path fill-rule="evenodd" clip-rule="evenodd" d="M12 12.0004L25.9949 2.39844L26.2838 2.8314L12 12.0004Z" fill="#97B8FF"/>
    <path fill-rule="evenodd" clip-rule="evenodd" d="M12 12.0006L26.2262 2.74524L26.5046 3.18588L12 12.0006Z" fill="#96B8FF"/>
    <path fill-rule="evenodd" clip-rule="evenodd" d="M12 11.9998L26.449 3.0968L26.7168 3.5432L12 11.9998Z" fill="#95B7FF"/>
    <path fill-rule="evenodd" clip-rule="evenodd" d="M12 12.0001L26.663 3.45422L26.9194 3.90734L12 12.0001Z" fill="#94B6FF"/>
    <path fill-rule="evenodd" clip-rule="evenodd" d="M12 12.0005L26.8685 3.8175L27.1133 4.27638L12 12.0005Z" fill="#93B6FF"/>
    <path fill-rule="evenodd" clip-rule="evenodd" d="M12 12L27.0643 4.18372L27.2986 4.64932L12 12Z" fill="#92B5FF"/>
    <path fill-rule="evenodd" clip-rule="evenodd" d="M12 12.0007L27.2525 4.55688L27.4742 5.02728L12 12.0007Z" fill="#91B4FF"/>
    <path fill-rule="evenodd" clip-rule="evenodd" d="M12 12.0001L27.4301 4.93262L27.6413 5.40878L12 12.0001Z" fill="#90B4FF"/>
    <path fill-rule="evenodd" clip-rule="evenodd" d="M12 12.0001L27.599 5.31274L27.7978 5.79466L12 12.0001Z" fill="#8FB3FF"/>
    <path fill-rule="evenodd" clip-rule="evenodd" d="M12 11.9997L27.7584 5.69727L27.9456 6.18399L12 11.9997Z" fill="#8EB2FF"/>
    <path fill-rule="evenodd" clip-rule="evenodd" d="M12 11.9998L27.9082 6.08618L28.0838 6.57674L12 11.9998Z" fill="#8DB2FF"/>
    <path fill-rule="evenodd" clip-rule="evenodd" d="M12 12.0005L28.0483 6.47949L28.2115 6.97389L12 12.0005Z" fill="#8CB1FF"/>
    <path fill-rule="evenodd" clip-rule="evenodd" d="M12 12.0004L28.1789 6.875L28.3306 7.37324L12 12.0004Z" fill="#8BB0FF"/>
    <path fill-rule="evenodd" clip-rule="evenodd" d="M12 12.0005L28.2998 7.27344L28.439 7.77552L12 12.0005Z" fill="#8AB0FF"/>
    <path fill-rule="evenodd" clip-rule="evenodd" d="M12 11.9998L28.4112 7.67407L28.5379 8.17903L12 11.9998Z" fill="#89AFFF"/>
    <path fill-rule="evenodd" clip-rule="evenodd" d="M12 12L28.513 8.07837L28.6262 8.58621L12 12Z" fill="#88AEFF"/>
    <path fill-rule="evenodd" clip-rule="evenodd" d="M12 12.0002L28.6032 8.4856L28.705 8.99536L12 12.0002Z" fill="#87AEFF"/>
    <path fill-rule="evenodd" clip-rule="evenodd" d="M12 12.0001L28.6848 8.89355L28.7741 9.40619L12 12.0001Z" fill="#86ADFF"/>
    <path fill-rule="evenodd" clip-rule="evenodd" d="M12 12.0004L28.7558 9.30371L28.8326 9.81923L12 12.0004Z" fill="#85ACFF"/>
    <path fill-rule="evenodd" clip-rule="evenodd" d="M12 11.9999L28.8173 9.71606L28.8806 10.2325L12 11.9999Z" fill="#84ACFF"/>
    <path fill-rule="evenodd" clip-rule="evenodd" d="M12 12.0002L28.8682 10.1292L28.919 10.6475L12 12.0002Z" fill="#83ABFF"/>
    <path fill-rule="evenodd" clip-rule="evenodd" d="M12 12.0004L28.9094 10.5441L28.9478 11.0634L12 12.0004Z" fill="#82AAFF"/>
    <path fill-rule="evenodd" clip-rule="evenodd" d="M12 11.9996L28.9402 10.959L28.9651 11.4793L12 11.9996Z" fill="#81AAFF"/>
    <path fill-rule="evenodd" clip-rule="evenodd" d="M12 12L28.9603 11.375L28.9728 11.8953L12 12Z" fill="#80A9FF"/>
    <path fill-rule="evenodd" clip-rule="evenodd" d="M12 12.0004L28.9699 11.7921V12.3124L12 12.0004Z" fill="#7FA8FF"/>
    <path fill-rule="evenodd" clip-rule="evenodd" d="M12 12.0001L28.9699 12.2084L28.9574 12.7288L12 12.0001Z" fill="#7EA7FF"/>
    <path fill-rule="evenodd" clip-rule="evenodd" d="M12 12.0001L28.9603 12.6251L28.9344 13.1444L12 12.0001Z" fill="#7DA7FF"/>
    <path fill-rule="evenodd" clip-rule="evenodd" d="M12 12.0001L28.9402 13.0408L28.9018 13.5601L12 12.0001Z" fill="#7CA6FF"/>
    <path fill-rule="evenodd" clip-rule="evenodd" d="M12 12.0001L28.9094 13.4564L28.8586 13.9748L12 12.0001Z" fill="#7BA5FF"/>
    <path fill-rule="evenodd" clip-rule="evenodd" d="M12 12.0001L28.8682 13.8702L28.8048 14.3876L12 12.0001Z" fill="#7AA5FF"/>
    <path fill-rule="evenodd" clip-rule="evenodd" d="M12 12.0001L28.8173 14.284L28.7405 14.7995L12 12.0001Z" fill="#79A4FF"/>
    <path fill-rule="evenodd" clip-rule="evenodd" d="M12 12.0001L28.7558 14.6958L28.6675 15.2094L12 12.0001Z" fill="#78A3FF"/>
    <path fill-rule="evenodd" clip-rule="evenodd" d="M12 12.0001L28.6848 15.1067L28.583 15.6174L12 12.0001Z" fill="#77A3FF"/>
    <path fill-rule="evenodd" clip-rule="evenodd" d="M12 12.0001L28.6032 15.5147L28.4899 16.0235L12 12.0001Z" fill="#76A2FF"/>
    <path fill-rule="evenodd" clip-rule="evenodd" d="M12 12.0001L28.513 15.9217L28.3862 16.4267L12 12.0001Z" fill="#75A1FF"/>
    <path fill-rule="evenodd" clip-rule="evenodd" d="M12 12.0001L28.4112 16.3259L28.273 16.827L12 12.0001Z" fill="#74A1FF"/>
    <path fill-rule="evenodd" clip-rule="evenodd" d="M12 12.0001L28.2998 16.7272L28.1491 17.2254L12 12.0001Z" fill="#73A0FF"/>
    <path fill-rule="evenodd" clip-rule="evenodd" d="M12 12.0001L28.1789 17.1256L28.0157 17.62L12 12.0001Z" fill="#729FFF"/>
    <path fill-rule="evenodd" clip-rule="evenodd" d="M12 12.0001L28.0483 17.5211L27.8736 18.0116L12 12.0001Z" fill="#719FFF"/>
    <path fill-rule="evenodd" clip-rule="evenodd" d="M12 12.0001L27.9082 17.9137L27.721 18.3995L12 12.0001Z" fill="#709EFF"/>
    <path fill-rule="evenodd" clip-rule="evenodd" d="M12 12.0001L27.7584 18.3016L27.5587 18.7835L12 12.0001Z" fill="#6F9DFF"/>
    <path fill-rule="evenodd" clip-rule="evenodd" d="M12 12.0001L27.599 18.6865L27.3878 19.1627L12 12.0001Z" fill="#6E9DFF"/>
    <path fill-rule="evenodd" clip-rule="evenodd" d="M12 12.0001L27.4301 19.0676L27.2074 19.538L12 12.0001Z" fill="#6D9CFF"/>
    <path fill-rule="evenodd" clip-rule="evenodd" d="M12 12.0001L27.2525 19.444L27.0182 19.9096L12 12.0001Z" fill="#6C9BFF"/>
    <path fill-rule="evenodd" clip-rule="evenodd" d="M12 12.0001L27.0643 19.8164L26.8195 20.2753L12 12.0001Z" fill="#6B9BFF"/>
    <path fill-rule="evenodd" clip-rule="evenodd" d="M12 12.0001L26.8685 20.1832L26.6122 20.6372L12 12.0001Z" fill="#6A9AFF"/>
    <path fill-rule="evenodd" clip-rule="evenodd" d="M12 12.0001L26.663 20.546L26.3952 20.9924L12 12.0001Z" fill="#6999FF"/>
    <path fill-rule="evenodd" clip-rule="evenodd" d="M12 12.0001L26.449 20.9032L26.1706 21.3428L12 12.0001Z" fill="#6899FF"/>
    <path fill-rule="evenodd" clip-rule="evenodd" d="M12 12.0001L26.2262 21.2555L25.9363 21.6884L12 12.0001Z" fill="#6798FF"/>
    <path fill-rule="evenodd" clip-rule="evenodd" d="M12 12.0001L25.9949 21.602L25.6954 22.0273L12 12.0001Z" fill="#6697FF"/>
    <path fill-rule="evenodd" clip-rule="evenodd" d="M12 12.0001L25.7549 21.9419L25.4448 22.3604L12 12.0001Z" fill="#6597FF"/>
    <path fill-rule="evenodd" clip-rule="evenodd" d="M12 12.0001L25.5072 22.2769L25.1866 22.6868L12 12.0001Z" fill="#6496FF"/>
    <path fill-rule="evenodd" clip-rule="evenodd" d="M12 12.0001L25.2509 22.6052L24.9206 23.0075L12 12.0001Z" fill="#6395FF"/>
    <path fill-rule="evenodd" clip-rule="evenodd" d="M12 12.0001L24.9859 22.9268L24.6461 23.3214L12 12.0001Z" fill="#6294FF"/>
    <path fill-rule="evenodd" clip-rule="evenodd" d="M12 12.0001L24.7142 23.2427L24.3648 23.6286L12 12.0001Z" fill="#6194FF"/>
    <path fill-rule="evenodd" clip-rule="evenodd" d="M12 12.0001L24.4349 23.5508L24.0758 23.9281L12 12.0001Z" fill="#6093FF"/>
    <path fill-rule="evenodd" clip-rule="evenodd" d="M12 12.0001L24.1469 23.8523L23.7792 24.2209L12 12.0001Z" fill="#5F92FF"/>
    <path fill-rule="evenodd" clip-rule="evenodd" d="M12 12.0001L23.8522 24.147L23.4758 24.506L12 12.0001Z" fill="#5E92FF"/>
    <path fill-rule="evenodd" clip-rule="evenodd" d="M12 12.0001L23.5507 24.435L23.1648 24.7844L12 12.0001Z" fill="#5D91FF"/>
    <path fill-rule="evenodd" clip-rule="evenodd" d="M12 12.0001L23.2426 24.7144L22.848 25.0542L12 12.0001Z" fill="#5C90FF"/>
    <path fill-rule="evenodd" clip-rule="evenodd" d="M12 12.0001L22.9267 24.986L22.5245 25.3163L12 12.0001Z" fill="#5B90FF"/>
    <path fill-rule="evenodd" clip-rule="evenodd" d="M12 12.0001L22.6051 25.251L22.1942 25.5707L12 12.0001Z" fill="#5A8FFF"/>
    <path fill-rule="evenodd" clip-rule="evenodd" d="M12 12.0001L22.2768 25.5073L21.8582 25.8174L12 12.0001Z" fill="#598EFF"/>
    <path fill-rule="evenodd" clip-rule="evenodd" d="M12 12.0001L21.9418 25.755L21.5165 26.0545L12 12.0001Z" fill="#588EFF"/>
    <path fill-rule="evenodd" clip-rule="evenodd" d="M12 12.0001L21.6019 25.995L21.168 26.284L12 12.0001Z" fill="#578DFF"/>
    <path fill-rule="evenodd" clip-rule="evenodd" d="M12 12.0001L21.2554 26.2264L20.8147 26.5048L12 12.0001Z" fill="#568CFF"/>
    <path fill-rule="evenodd" clip-rule="evenodd" d="M12 12.0001L20.903 26.4491L20.4566 26.7169L12 12.0001Z" fill="#558CFF"/>
    <path fill-rule="evenodd" clip-rule="evenodd" d="M12 12.0001L20.5459 26.6632L20.0928 26.9195L12 12.0001Z" fill="#548BFF"/>
    <path fill-rule="evenodd" clip-rule="evenodd" d="M12 12.0001L20.183 26.8686L19.7242 27.1134L12 12.0001Z" fill="#538AFF"/>
    <path fill-rule="evenodd" clip-rule="evenodd" d="M12 12.0001L19.8163 27.0644L19.3507 27.2987L12 12.0001Z" fill="#528AFF"/>
    <path fill-rule="evenodd" clip-rule="evenodd" d="M12 12.0001L19.4438 27.2526L18.9734 27.4744L12 12.0001Z" fill="#5189FF"/>
    <path fill-rule="evenodd" clip-rule="evenodd" d="M12 12.0001L19.0675 27.4302L18.5914 27.6414L12 12.0001Z" fill="#5088FF"/>
    <path fill-rule="evenodd" clip-rule="evenodd" d="M12 12.0001L18.6864 27.5992L18.2054 27.7979L12 12.0001Z" fill="#4F88FF"/>
    <path fill-rule="evenodd" clip-rule="evenodd" d="M12 12.0001L18.3014 27.7585L17.8157 27.9457L12 12.0001Z" fill="#4E87FF"/>
    <path fill-rule="evenodd" clip-rule="evenodd" d="M12 12.0001L17.9136 27.9083L17.423 28.084L12 12.0001Z" fill="#4D86FF"/>
    <path fill-rule="evenodd" clip-rule="evenodd" d="M12 12.0001L17.521 28.0484L17.0266 28.2116L12 12.0001Z" fill="#4C86FF"/>
    <path fill-rule="evenodd" clip-rule="evenodd" d="M12 12.0001L17.1254 28.179L16.6272 28.3307L12 12.0001Z" fill="#4B85FF"/>
    <path fill-rule="evenodd" clip-rule="evenodd" d="M12 12.0001L16.727 28.3L16.225 28.4392L12 12.0001Z" fill="#4A84FF"/>
    <path fill-rule="evenodd" clip-rule="evenodd" d="M12 12.0001L16.3258 28.4113L15.8198 28.538L12 12.0001Z" fill="#4984FF"/>
    <path fill-rule="evenodd" clip-rule="evenodd" d="M12 12.0001L15.9216 28.5131L15.4138 28.6264L12 12.0001Z" fill="#4883FF"/>
    <path fill-rule="evenodd" clip-rule="evenodd" d="M12 12.0001L15.5146 28.6033L15.0038 28.7051L12 12.0001Z" fill="#4782FF"/>
    <path fill-rule="evenodd" clip-rule="evenodd" d="M12 12.0001L15.1066 28.6849L14.5939 28.7742L12 12.0001Z" fill="#4681FF"/>
    <path fill-rule="evenodd" clip-rule="evenodd" d="M12 12.0001L14.6957 28.756L14.1811 28.8328L12 12.0001Z" fill="#4581FF"/>
    <path fill-rule="evenodd" clip-rule="evenodd" d="M12 12.0001L14.2838 28.8174L13.7674 28.8808L12 12.0001Z" fill="#4480FF"/>
    <path fill-rule="evenodd" clip-rule="evenodd" d="M12 12.0001L13.8701 28.8683L13.3526 28.9192L12 12.0001Z" fill="#437FFF"/>
    <path fill-rule="evenodd" clip-rule="evenodd" d="M12 12.0001L13.4563 28.9096L12.937 28.948L12 12.0001Z" fill="#427FFF"/>
    <path fill-rule="evenodd" clip-rule="evenodd" d="M12 12.0001L13.0406 28.9403L12.5203 28.9652L12 12.0001Z" fill="#417EFF"/>
    <path fill-rule="evenodd" clip-rule="evenodd" d="M12 12.0001L12.625 28.9604L12.1037 28.9729L12 12.0001Z" fill="#407DFF"/>
    <path fill-rule="evenodd" clip-rule="evenodd" d="M11.9995 12.0001L12.2078 28.97H11.6865L11.9995 12.0001Z" fill="#3F7DFF"/>
    <path fill-rule="evenodd" clip-rule="evenodd" d="M11.9991 12.0001L11.7908 28.97L11.2705 28.9576L11.9991 12.0001Z" fill="#3E7CFF"/>
    <path fill-rule="evenodd" clip-rule="evenodd" d="M11.9988 12.0001L11.3738 28.9604L10.8535 28.9345L11.9988 12.0001Z" fill="#3D7BFF"/>
    <path fill-rule="evenodd" clip-rule="evenodd" d="M11.9995 12.0001L10.9588 28.9403L10.4395 28.9019L11.9995 12.0001Z" fill="#3C7BFF"/>
    <path fill-rule="evenodd" clip-rule="evenodd" d="M11.9991 12.0001L10.5428 28.9096L10.0244 28.8587L11.9991 12.0001Z" fill="#3B7AFF"/>
    <path fill-rule="evenodd" clip-rule="evenodd" d="M11.9988 12.0001L10.1278 28.8683L9.61133 28.8049L11.9988 12.0001Z" fill="#3A79FF"/>
    <path fill-rule="evenodd" clip-rule="evenodd" d="M11.9996 12.0001L9.71571 28.8174L9.2002 28.7406L11.9996 12.0001Z" fill="#3979FF"/>
    <path fill-rule="evenodd" clip-rule="evenodd" d="M11.9993 12.0001L9.30268 28.756L8.79004 28.6676L11.9993 12.0001Z" fill="#3878FF"/>
    <path fill-rule="evenodd" clip-rule="evenodd" d="M11.9991 12.0001L8.89256 28.6849L8.38184 28.5832L11.9991 12.0001Z" fill="#3777FF"/>
    <path fill-rule="evenodd" clip-rule="evenodd" d="M11.9999 12.0001L8.48536 28.6033L7.97656 28.49L11.9999 12.0001Z" fill="#3677FF"/>
    <path fill-rule="evenodd" clip-rule="evenodd" d="M11.9988 12.0001L8.07723 28.5131L7.57227 28.3864L11.9988 12.0001Z" fill="#3576FF"/>
    <path fill-rule="evenodd" clip-rule="evenodd" d="M11.9997 12.0001L7.67396 28.4113L7.17188 28.2731L11.9997 12.0001Z" fill="#3475FF"/>
    <path fill-rule="evenodd" clip-rule="evenodd" d="M11.9997 12.0001L7.27265 28.3L6.77441 28.1492L11.9997 12.0001Z" fill="#3375FF"/>
    <path fill-rule="evenodd" clip-rule="evenodd" d="M11.9997 12.0001L6.87428 28.179L6.37988 28.0158L11.9997 12.0001Z" fill="#3274FF"/>
    <path fill-rule="evenodd" clip-rule="evenodd" d="M11.9998 12.0001L6.47884 28.0484L5.98828 27.8737L11.9998 12.0001Z" fill="#3173FF"/>
    <path fill-rule="evenodd" clip-rule="evenodd" d="M11.9999 12.0001L6.08635 27.9083L5.60059 27.7211L11.9999 12.0001Z" fill="#3073FF"/>
    <path fill-rule="evenodd" clip-rule="evenodd" d="M12.0002 12.0001L5.69776 27.7585L5.2168 27.5588L12.0002 12.0001Z" fill="#2F72FF"/>
    <path fill-rule="evenodd" clip-rule="evenodd" d="M11.9995 12.0001L5.31211 27.5992L4.83691 27.388L11.9995 12.0001Z" fill="#2E71FF"/>
    <path fill-rule="evenodd" clip-rule="evenodd" d="M11.9998 12.0001L4.93231 27.4302L4.46191 27.2075L11.9998 12.0001Z" fill="#2D71FF"/>
    <path fill-rule="evenodd" clip-rule="evenodd" d="M11.9993 12.0001L4.55544 27.2526L4.08984 27.0184L11.9993 12.0001Z" fill="#2C70FF"/>
    <path fill-rule="evenodd" clip-rule="evenodd" d="M11.9998 12.0001L4.18349 27.0644L3.72461 26.8196L11.9998 12.0001Z" fill="#2B6FFF"/>
    <path fill-rule="evenodd" clip-rule="evenodd" d="M11.9994 12.0001L3.81639 26.8686L3.3623 26.6123L11.9994 12.0001Z" fill="#2A6EFF"/>
    <path fill-rule="evenodd" clip-rule="evenodd" d="M12.0001 12.0001L3.45421 26.6632L3.00781 26.3953L12.0001 12.0001Z" fill="#296EFF"/>
    <path fill-rule="evenodd" clip-rule="evenodd" d="M11.9999 12.0001L3.09689 26.4491L2.65625 26.1707L11.9999 12.0001Z" fill="#286DFF"/>
    <path fill-rule="evenodd" clip-rule="evenodd" d="M11.9989 12.0001L2.74351 26.2264L2.31055 25.9364L11.9989 12.0001Z" fill="#276CFF"/>
    <path fill-rule="evenodd" clip-rule="evenodd" d="M11.9999 12.0001L2.39794 25.995L1.97266 25.6955L11.9999 12.0001Z" fill="#266CFF"/>
    <path fill-rule="evenodd" clip-rule="evenodd" d="M12 12.0001L2.05821 25.755L1.63965 25.4449L12 12.0001Z" fill="#256BFF"/>
    <path fill-rule="evenodd" clip-rule="evenodd" d="M11.9992 12.0001L1.7224 25.5073L1.31152 25.1867L11.9992 12.0001Z" fill="#246AFF"/>
    <path fill-rule="evenodd" clip-rule="evenodd" d="M11.9995 12.0001L1.39443 25.251L0.992188 24.9208L11.9995 12.0001Z" fill="#236AFF"/>
    <path fill-rule="evenodd" clip-rule="evenodd" d="M12 12.0001L1.07327 24.986L0.678711 24.6462L12 12.0001Z" fill="#2269FF"/>
    <path fill-rule="evenodd" clip-rule="evenodd" d="M11.9996 12.0001L0.757014 24.7144L0.371094 24.3649L11.9996 12.0001Z" fill="#2168FF"/>
    <path fill-rule="evenodd" clip-rule="evenodd" d="M11.9993 12.0001L0.448569 24.435L0.0712891 24.076L11.9993 12.0001Z" fill="#2068FF"/>
    <path fill-rule="evenodd" clip-rule="evenodd" d="M12.0001 12.0001L0.147937 24.147L-0.220703 23.7793L12.0001 12.0001Z" fill="#1F67FF"/>
    <path fill-rule="evenodd" clip-rule="evenodd" d="M11.9991 12.0001L-0.148756 23.8523L-0.506836 23.476L11.9991 12.0001Z" fill="#1E66FF"/>
    <path fill-rule="evenodd" clip-rule="evenodd" d="M12.0001 12.0001L-0.43474 23.5508L-0.78418 23.1649L12.0001 12.0001Z" fill="#1D66FF"/>
    <path fill-rule="evenodd" clip-rule="evenodd" d="M11.9994 12.0001L-0.714847 23.2427L-1.05469 22.8481L11.9994 12.0001Z" fill="#1C65FF"/>
    <path fill-rule="evenodd" clip-rule="evenodd" d="M11.9998 12.0001L-0.986166 22.9268L-1.31641 22.5246L11.9998 12.0001Z" fill="#1B64FF"/>
    <path fill-rule="evenodd" clip-rule="evenodd" d="M11.9993 12.0001L-1.25161 22.6052L-1.57129 22.1944L11.9993 12.0001Z" fill="#1A64FF"/>
    <path fill-rule="evenodd" clip-rule="evenodd" d="M11.9999 12.0001L-1.5073 22.2769L-1.81738 21.8584L11.9999 12.0001Z" fill="#1963FF"/>
    <path fill-rule="evenodd" clip-rule="evenodd" d="M11.9997 12.0001L-1.75517 21.9419L-2.05469 21.5166L11.9997 12.0001Z" fill="#1862FF"/>
    <path fill-rule="evenodd" clip-rule="evenodd" d="M11.9997 12.0001L-1.99522 21.602L-2.28418 21.1681L11.9997 12.0001Z" fill="#1762FF"/>
    <path fill-rule="evenodd" clip-rule="evenodd" d="M11.9988 12.0001L-2.22746 21.2555L-2.50586 20.8148L11.9988 12.0001Z" fill="#1661FF"/>
    <path fill-rule="evenodd" clip-rule="evenodd" d="M12 12.0001L-2.44896 20.9032L-2.7168 20.4568L12 12.0001Z" fill="#1560FF"/>
    <path fill-rule="evenodd" clip-rule="evenodd" d="M11.9994 12.0001L-2.6636 20.546L-2.91992 20.0929L11.9994 12.0001Z" fill="#1460FF"/>
    <path fill-rule="evenodd" clip-rule="evenodd" d="M11.999 12.0001L-2.86947 20.1832L-3.11523 19.7243L11.999 12.0001Z" fill="#135FFF"/>
    <path fill-rule="evenodd" clip-rule="evenodd" d="M11.9997 12.0001L-3.06555 19.8164L-3.29883 19.3508L11.9997 12.0001Z" fill="#125EFF"/>
    <path fill-rule="evenodd" clip-rule="evenodd" d="M11.9996 12.0001L-3.25285 19.444L-3.47461 18.9736L11.9996 12.0001Z" fill="#115EFF"/>
    <path fill-rule="evenodd" clip-rule="evenodd" d="M11.9987 12.0001L-3.43138 19.0676L-3.64258 18.5915L11.9987 12.0001Z" fill="#105DFF"/>
    <path fill-rule="evenodd" clip-rule="evenodd" d="M11.9999 12.0001L-3.59915 18.6865L-3.79883 18.2056L11.9999 12.0001Z" fill="#0F5CFF"/>
    <path fill-rule="evenodd" clip-rule="evenodd" d="M11.9993 12.0001L-3.75909 18.3016L-3.94629 17.8158L11.9993 12.0001Z" fill="#0E5BFF"/>
    <path fill-rule="evenodd" clip-rule="evenodd" d="M11.9999 12.0001L-3.9083 17.9137L-4.08398 17.4232L11.9999 12.0001Z" fill="#0D5BFF"/>
    <path fill-rule="evenodd" clip-rule="evenodd" d="M11.9996 12.0001L-4.04967 17.5211L-4.21191 17.0267L11.9996 12.0001Z" fill="#0C5AFF"/>
    <path fill-rule="evenodd" clip-rule="evenodd" d="M11.9995 12.0001L-4.18033 17.1256L-4.33105 16.6273L11.9995 12.0001Z" fill="#0B59FF"/>
    <path fill-rule="evenodd" clip-rule="evenodd" d="M11.9996 12.0001L-4.30121 16.7272L-4.43945 16.2251L11.9996 12.0001Z" fill="#0A59FF"/>
    <path fill-rule="evenodd" clip-rule="evenodd" d="M11.9998 12.0001L-4.41137 16.3259L-4.53809 15.82L11.9998 12.0001Z" fill="#0958FF"/>
    <path fill-rule="evenodd" clip-rule="evenodd" d="M11.9993 12.0001L-4.51367 15.9217L-4.62695 15.4139L11.9993 12.0001Z" fill="#0857FF"/>
    <path fill-rule="evenodd" clip-rule="evenodd" d="M11.9999 12.0001L-4.60428 15.5147L-4.70508 15.004L11.9999 12.0001Z" fill="#0757FF"/>
    <path fill-rule="evenodd" clip-rule="evenodd" d="M11.9997 12.0001L-4.68513 15.1067L-4.77441 14.594L11.9997 12.0001Z" fill="#0656FF"/>
    <path fill-rule="evenodd" clip-rule="evenodd" d="M11.9996 12.0001L-4.75621 14.6958L-4.83301 14.1812L11.9996 12.0001Z" fill="#0555FF"/>
    <path fill-rule="evenodd" clip-rule="evenodd" d="M11.9998 12.0001L-4.8175 14.284L-4.88086 13.7675L11.9998 12.0001Z" fill="#0455FF"/>
    <path fill-rule="evenodd" clip-rule="evenodd" d="M11.9991 12.0001L-4.86904 13.8702L-4.91992 13.3528L11.9991 12.0001Z" fill="#0354FF"/>
    <path fill-rule="evenodd" clip-rule="evenodd" d="M11.9996 12.0001L-4.90984 13.4564L-4.94824 12.9371L11.9996 12.0001Z" fill="#0253FF"/>
    <path fill-rule="evenodd" clip-rule="evenodd" d="M11.9993 12.0001L-4.94086 13.0408L-4.96582 12.5204L11.9993 12.0001Z" fill="#0153FF"/>
    <path fill-rule="evenodd" clip-rule="evenodd" d="M12.0001 12.0001L-4.96018 12.6251L-4.97266 12.1038L12.0001 12.0001Z" fill="#0052FF"/>
    <path fill-rule="evenodd" clip-rule="evenodd" d="M11.9992 12.0004L-4.97168 12.2088V11.7921L11.9992 12.0004Z" fill="white"/>
  </g>
</svg>
