<svg xmlns="http://www.w3.org/2000/svg" width="24" height="24" viewBox="0 0 24 24" fill="none">
  <mask id="mask0_1261_4918" style="mask-type:alpha" maskUnits="userSpaceOnUse" x="0" y="0" width="24" height="24">
    <circle cx="12" cy="12" r="12" fill="white"/>
  </mask>
  <g mask="url(#mask0_1261_4918)">
    <path d="M12 0C20 0 24 4 24 12C24 20 20 24 12 24C4 24 0 20 0 12C0 4 4 0 12 0Z" fill="black"/>
    <path d="M7.50423 14.8089C7.58473 14.7261 7.69538 14.6794 7.8109 14.6796H18.4509C18.6402 14.6796 18.7402 14.9196 18.6042 15.0596L16.5056 17.2036C16.4251 17.2864 16.3144 17.3331 16.1989 17.3329L5.54823 17.3329C5.3589 17.3329 5.2589 17.0929 5.3949 16.9542L7.50156 14.8089H7.50423Z" fill="#C931F7"/>
    <path d="M7.50423 6.79622C7.58473 6.71337 7.69537 6.6667 7.81089 6.66687H18.4509C18.6402 6.66687 18.7402 6.90687 18.6042 7.04554L16.5056 9.19087C16.4251 9.27371 16.3144 9.32038 16.1989 9.3202H5.54823C5.3589 9.3202 5.2589 9.0802 5.3949 8.9402L7.50156 6.7962L7.50423 6.79622Z" fill="#1CE2AF"/>
    <path d="M16.4959 10.7798C16.4154 10.697 16.3047 10.6503 16.1892 10.6505L5.54921 10.6505C5.35987 10.6505 5.25987 10.8905 5.39587 11.0292L7.49453 13.1732C7.57503 13.256 7.68568 13.3027 7.8012 13.3025L18.4412 13.3025C18.6305 13.3025 18.7305 13.0625 18.5945 12.9238L16.4959 10.7798Z" fill="#6697CE"/>
  </g>
</svg>
