<svg xmlns="http://www.w3.org/2000/svg" width="24" height="24" viewBox="0 0 24 24" fill="none">
  <g clip-path="url(#clip0_3462_5295)">
    <path d="M22.1673 11.9909C22.9673 11.9909 23.6218 12.6454 23.64 13.4454V19.2999C23.64 21.6999 21.6946 23.6454 19.2946 23.6454H4.69458C2.29458 23.6454 0.349121 21.6999 0.349121 19.2999V4.69995C0.349121 2.29995 2.29458 0.354492 4.69458 0.354492H16.3491C17.1491 0.354492 17.8037 1.00904 17.8037 1.80904C17.8037 2.60904 17.1491 3.26358 16.3491 3.26358H4.69458C3.89458 3.26358 3.25821 3.91813 3.25821 4.69995V19.2818C3.25821 20.0818 3.91276 20.7181 4.69458 20.7181H19.2764C20.0764 20.7181 20.7128 20.0636 20.7128 19.2818V13.4454C20.7128 12.6454 21.3673 11.9909 22.1673 11.9909ZM7.93094 8.77267L11.9855 12.8454L20.44 4.40904C21.0037 3.8454 21.9309 3.8454 22.4946 4.40904C23.0582 4.97267 23.0582 5.89995 22.4946 6.46358L13.04 15.9181C12.7491 16.1909 12.3855 16.3363 12.0037 16.3363C11.6218 16.3363 11.2582 16.209 10.9673 15.9181L5.87639 10.8272C5.31276 10.2636 5.31276 9.33631 5.87639 8.77267C6.44003 8.20904 7.3673 8.20904 7.93094 8.77267Z" fill="#FFD41A"/>
  </g>
  <defs>
    <clipPath id="clip0_3462_5295">
      <rect width="24" height="24" fill="white"/>
    </clipPath>
  </defs>
</svg>
