<svg xmlns="http://www.w3.org/2000/svg" width="24" height="24" viewBox="0 0 24 24" fill="none">
  <g clip-path="url(#clip0_3460_3590)">
    <path d="M22.7625 0L6.5919 0.00250001C6.2722 0.002385 5.96495 0.126398 5.7349 0.3484L3.0054 2.9709L0.380403 5.4895C0.259865 5.60461 0.163987 5.74302 0.0985944 5.89632C0.0332013 6.04963 -0.000341921 6.21463 2.62763e-06 6.3813V22.7624C2.62763e-06 23.4451 0.554203 24 1.2374 24L22.7625 23.9975C23.4453 23.9975 23.9973 23.4452 24 22.7649V1.2377C24 0.5549 23.4453 0 22.7625 0ZM21.5248 21.5244L2.4749 21.527V6.9059L4.7194 4.7522L7.0901 2.473L21.5248 2.4697V21.5244ZM6.2838 12.7994C6.2838 13.4828 6.8384 14.0371 7.5216 14.0371H10.7436V17.2601C10.7436 17.9429 11.2982 18.4978 11.9814 18.4978C12.6641 18.4978 13.2188 17.9429 13.2188 17.2601V14.0371H16.4411C17.1239 14.0371 17.6786 13.4828 17.6786 12.7994C17.6786 12.1166 17.1239 11.5617 16.4411 11.5617H13.2188V8.3393C13.2188 7.6559 12.6641 7.1016 11.9814 7.1016C11.2982 7.1016 10.7436 7.6559 10.7436 8.3393V11.5618H7.5216C6.8384 11.5617 6.2838 12.1166 6.2838 12.7994Z" fill="white"/>
  </g>
  <defs>
    <clipPath id="clip0_3460_3590">
      <rect width="24" height="24" fill="white"/>
    </clipPath>
  </defs>
</svg>
