<svg xmlns="http://www.w3.org/2000/svg" width="24" height="24" viewBox="0 0 24 24" fill="none">
  <g clip-path="url(#clip0_3460_3608)">
    <path d="M24.001 19.0829V18.8426C23.9966 18.7803 23.97 18.7217 23.9258 18.6776C23.8817 18.6334 23.8231 18.6068 23.7609 18.6025C23.6323 18.5934 23.7609 18.4822 23.641 18.4822L20.2808 15.1189C20.1725 15.0049 20.0422 14.9142 19.8978 14.8522C19.7534 14.7902 19.5979 14.7582 19.4408 14.7582C19.2836 14.7582 19.1281 14.7902 18.9837 14.8522C18.8393 14.9142 18.709 15.0049 18.6007 15.1189C18.1207 15.5994 18.1207 16.3202 18.6007 16.8006L19.4409 17.6414C15.8406 16.5603 13.2005 14.0378 13.2005 10.9146C13.2005 5.62928 7.80038 1.30496 1.20011 1.30496C0.480091 1.30496 0 1.78552 0 2.50624C0 3.22696 0.480091 3.70752 1.20011 3.70752C6.48031 3.70752 10.8005 6.95072 10.8005 10.9147C10.8005 15.4794 14.7605 19.3233 20.1608 20.2842L18.6007 21.8458C18.1207 22.3264 18.1207 23.0471 18.6007 23.5275C19.0807 24.0081 19.8008 24.0081 20.2808 23.5275L23.6409 20.1641C23.7608 20.0441 23.8808 19.9239 23.8808 19.8038V19.3234C24.001 19.203 24.001 19.0829 24.001 19.0829ZM24.001 4.66832C24.0053 4.51042 23.9754 4.35345 23.9133 4.20825C23.8511 4.06306 23.7582 3.9331 23.641 3.82736L20.2808 0.46408C20.1725 0.350149 20.0422 0.25944 19.8978 0.197458C19.7534 0.135476 19.5979 0.103516 19.4408 0.103516C19.2837 0.103516 19.1282 0.135476 18.9838 0.197458C18.8394 0.25944 18.709 0.350149 18.6007 0.46408C18.1207 0.94456 18.1207 1.66536 18.6007 2.14576L20.4006 3.94752C18.3608 4.30792 16.5606 5.02864 15.0006 6.10968C14.4004 6.47008 14.2805 7.1908 14.7605 7.79144C15.0006 8.15176 15.3606 8.27184 15.7206 8.27184C15.9607 8.27184 16.2006 8.15176 16.4407 8.03168C17.2808 7.43104 18.3608 6.95048 19.4409 6.59016L18.4807 7.19072C18.0007 7.67128 18.0007 8.392 18.4807 8.87248C18.9607 9.35288 19.6808 9.35288 20.1607 8.87248L23.1609 5.86936C23.3979 5.80267 23.6074 5.66172 23.7586 5.46717C23.9097 5.27262 23.9947 5.03471 24.0009 4.78832V4.66832H24.001ZM1.20011 13.3171H4.80019C5.52029 13.3171 6.0003 12.8366 6.0003 12.1158C6.0003 11.3951 5.52029 10.9146 4.80019 10.9146H1.20011C0.480091 10.9146 0 11.3951 0 12.1158C7.99141e-05 12.7164 0.480171 13.3171 1.20011 13.3171ZM9.24042 17.0409C7.44033 19.203 4.44022 20.4043 1.20011 20.4043C0.480091 20.4043 0 20.8847 0 21.6056C0 22.3263 0.480091 22.8067 1.20011 22.8067C5.16024 22.8067 8.88037 21.2452 11.0404 18.7226C11.5205 18.2422 11.4005 17.5214 10.9205 17.0409C10.8122 16.9269 10.6819 16.8362 10.5375 16.7742C10.3931 16.7122 10.2376 16.6802 10.0804 16.6802C9.92331 16.6802 9.76782 16.7122 9.62341 16.7742C9.47901 16.8362 9.3487 16.9269 9.24042 17.0409Z" fill="white"/>
  </g>
  <defs>
    <clipPath id="clip0_3460_3608">
      <rect width="24" height="24" fill="white"/>
    </clipPath>
  </defs>
</svg>
