<svg xmlns="http://www.w3.org/2000/svg" width="24" height="24" viewBox="0 0 24 24" fill="none">
  <g clip-path="url(#clip0_3460_3614)">
    <path d="M0 12C0 18.6273 5.37273 24 12 24C18.6273 24 24 18.6273 24 12C24 5.37273 18.6273 0 12 0C5.37273 0 0 5.37273 0 12ZM2.18182 12C2.18182 6.57764 6.57764 2.18182 12 2.18182C17.4224 2.18182 21.8182 6.57764 21.8182 12C21.8182 17.4224 17.4224 21.8182 12 21.8182C6.57764 21.8182 2.18182 17.4224 2.18182 12ZM4.88345 15.1255L4.938 15.1871L8.66236 19.0636C8.76049 19.1657 8.89445 19.2256 9.03594 19.2307C9.17742 19.2358 9.31534 19.1856 9.42055 19.0909L9.46855 19.0418L10.0985 18.3115C10.1794 18.2177 10.2259 18.0992 10.2304 17.9755C10.235 17.8518 10.1973 17.7302 10.1236 17.6307L10.0789 17.5773L8.07055 15.4871H18.8182C18.9519 15.4871 19.0809 15.4379 19.1807 15.349C19.2806 15.2602 19.3443 15.1377 19.3598 15.0049L19.3636 14.9416V13.9091C19.3636 13.7755 19.3146 13.6465 19.2258 13.5467C19.137 13.4469 19.0147 13.3831 18.882 13.3675L18.8182 13.3636H5.62855C4.75691 13.3636 4.33255 14.46 4.88345 15.1255ZM4.63636 10.0909C4.63636 10.1625 4.65047 10.2335 4.67788 10.2996C4.7053 10.3658 4.74547 10.426 4.79612 10.4766C4.84677 10.5273 4.9069 10.5674 4.97308 10.5948C5.03926 10.6223 5.11019 10.6364 5.18182 10.6364H18.3715C19.2709 10.6364 19.6936 9.47018 19.062 8.81291L15.3382 4.93636C15.3202 4.91782 15.3202 4.91782 15.3011 4.90091C15.1915 4.80655 15.0489 4.75957 14.9047 4.77031C14.7605 4.78105 14.6264 4.84863 14.532 4.95818L13.9015 5.68855C13.8128 5.79146 13.7657 5.92375 13.7695 6.05954C13.7732 6.19533 13.8275 6.32484 13.9216 6.42273L15.9295 8.51291H5.18182C5.11019 8.51291 5.03926 8.52702 4.97308 8.55443C4.9069 8.58184 4.84677 8.62202 4.79612 8.67267C4.74547 8.72332 4.7053 8.78345 4.67788 8.84963C4.65047 8.91581 4.63636 8.98673 4.63636 9.05836V10.0909Z" fill="white"/>
  </g>
  <defs>
    <clipPath id="clip0_3460_3614">
      <rect width="24" height="24" fill="white"/>
    </clipPath>
  </defs>
</svg>
