<svg xmlns="http://www.w3.org/2000/svg" width="24" height="24" viewBox="0 0 24 24" fill="none">
  <g clip-path="url(#clip0_3460_3596)">
    <path d="M11.9994 4.39875e-08C12.8497 -0.000132806 13.6725 0.300659 14.3222 0.849094C14.9719 1.39753 15.4065 2.15821 15.549 2.9964C17.9875 3.8454 20.0413 5.53958 21.3385 7.7721C22.6357 10.0046 23.0905 12.6279 22.6206 15.1668C23.3014 15.6999 23.7675 16.4603 23.9337 17.3088C24.1 18.1573 23.9553 19.0373 23.5261 19.788C23.0969 20.5386 22.4119 21.1096 21.5963 21.3968C20.7807 21.6839 19.889 21.6678 19.0842 21.3516C17.121 23.0628 14.6038 24.0038 11.9994 24C9.39512 24.0038 6.87782 23.0628 4.91464 21.3516C4.11028 21.6662 3.21962 21.6811 2.40518 21.3936C1.59074 21.1061 0.90679 20.5354 0.478123 19.7856C0.0494563 19.0358 -0.0953567 18.1569 0.0701049 17.3092C0.235567 16.4615 0.700273 15.7016 1.37944 15.168C0.909148 12.629 1.36366 10.0056 2.66065 7.77287C3.95765 5.54011 6.01136 3.84566 8.44984 2.9964C8.59239 2.15821 9.027 1.39753 9.67669 0.849094C10.3264 0.300659 11.1492 -0.000132806 11.9994 4.39875e-08ZM14.955 5.6556C14.6237 6.13253 14.1818 6.52212 13.6671 6.79107C13.1524 7.06002 12.5802 7.20033 11.9994 7.2C10.7754 7.2 9.69544 6.5892 9.04384 5.6556C7.33232 6.3267 5.8999 7.5599 4.98184 9.15265C4.06379 10.7454 3.71467 12.603 3.99184 14.4204C4.55688 14.4821 5.09928 14.6767 5.57466 14.9883C6.05003 15.2999 6.44487 15.7196 6.72686 16.2131C7.00885 16.7066 7.16998 17.2599 7.19705 17.8276C7.22413 18.3954 7.11639 18.9615 6.88264 19.4796C8.32655 20.6596 10.1347 21.3029 11.9994 21.3C13.8642 21.3029 15.6723 20.6596 17.1162 19.4796C16.8827 18.9615 16.7752 18.3954 16.8024 17.8277C16.8297 17.26 16.991 16.7069 17.2731 16.2135C17.5552 15.7201 17.9501 15.3005 18.4255 14.9891C18.9009 14.6776 19.4432 14.4832 20.0082 14.4216C20.2854 12.6042 19.9363 10.7466 19.0182 9.15385C18.1002 7.5611 16.6678 6.3279 14.9562 5.6568L14.955 5.6556ZM3.59944 16.8C3.44184 16.8 3.28578 16.831 3.14016 16.8913C2.99455 16.9516 2.86224 17.04 2.75079 17.1514C2.63934 17.2628 2.55094 17.3951 2.49062 17.5407C2.4303 17.6863 2.39926 17.8424 2.39926 18C2.39926 18.1576 2.4303 18.3137 2.49062 18.4593C2.55094 18.6049 2.63934 18.7372 2.75079 18.8486C2.86224 18.96 2.99455 19.0484 3.14016 19.1087C3.28578 19.169 3.44184 19.2 3.59944 19.2C3.91767 19.1999 4.22285 19.0735 4.44785 18.8485C4.67285 18.6234 4.79926 18.3182 4.79926 18C4.79926 17.6818 4.67285 17.3766 4.44785 17.1515C4.22285 16.9265 3.91767 16.8 3.59944 16.8ZM20.3994 16.8C20.2418 16.8 20.0858 16.831 19.9402 16.8913C19.7945 16.9516 19.6622 17.04 19.5508 17.1514C19.4393 17.2628 19.3509 17.3951 19.2906 17.5407C19.2303 17.6863 19.1992 17.8424 19.1992 18C19.1992 18.1576 19.2303 18.3137 19.2906 18.4593C19.3509 18.6049 19.4393 18.7372 19.5508 18.8486C19.6622 18.96 19.7945 19.0484 19.9402 19.1087C20.0858 19.169 20.2418 19.2 20.3994 19.2C20.7177 19.1999 21.0228 19.0735 21.2478 18.8485C21.4728 18.6234 21.5992 18.3182 21.5992 18C21.5992 17.6818 21.4728 17.3766 21.2478 17.1515C21.0228 16.9265 20.7177 16.8 20.3994 16.8ZM11.9994 2.4C11.8418 2.39997 11.6858 2.431 11.5402 2.49129C11.3945 2.55159 11.2622 2.63997 11.1508 2.75141C11.0393 2.86284 10.9509 2.99513 10.8906 3.14074C10.8303 3.28634 10.7993 3.4424 10.7993 3.6C10.7993 3.7576 10.8303 3.91366 10.8906 4.05926C10.9509 4.20486 11.0393 4.33716 11.1508 4.44859C11.2622 4.56002 11.3945 4.64841 11.5402 4.70871C11.6858 4.769 11.8418 4.80002 11.9994 4.8C12.3177 4.79995 12.6228 4.6735 12.8478 4.44846C13.0728 4.22342 13.1993 3.91823 13.1993 3.6C13.1993 3.28177 13.0728 2.97657 12.8478 2.75154C12.6228 2.5265 12.3177 2.40005 11.9994 2.4Z" fill="white"/>
  </g>
  <defs>
    <clipPath id="clip0_3460_3596">
      <rect width="24" height="24" fill="white"/>
    </clipPath>
  </defs>
</svg>
