<svg xmlns="http://www.w3.org/2000/svg" width="24" height="24" viewBox="0 0 24 24" fill="none">
  <g clip-path="url(#clip0_3460_3602)">
    <path d="M14.1677 23.4966V24.3411C14.1677 24.565 14.0777 24.7798 13.9176 24.9382C13.7574 25.0966 13.5401 25.1855 13.3136 25.1855H1.35594C1.12941 25.1855 0.912161 25.0966 0.751982 24.9382C0.591804 24.7798 0.501816 24.565 0.501816 24.3411V23.4966C0.501816 23.2726 0.591804 23.0578 0.751982 22.8994C0.912161 22.7411 1.12941 22.6521 1.35594 22.6521H13.3136C13.5401 22.6521 13.7574 22.7411 13.9176 22.8994C14.0777 23.0578 14.1677 23.2726 14.1677 23.4966ZM7.58759 2.24272C7.72766 2.00237 7.91426 1.79168 8.13673 1.62267C8.35919 1.45366 8.61317 1.32965 8.88413 1.25774C9.15509 1.18582 9.43773 1.1674 9.71589 1.20354C9.99405 1.23967 10.2623 1.32965 10.5053 1.46833L16.4072 4.84794C16.8966 5.12804 17.2536 5.5886 17.3999 6.12861C17.5463 6.66862 17.47 7.24397 17.1879 7.72846L14.4205 12.4778L24.0593 17.9804C24.2555 18.0924 24.3986 18.2769 24.4572 18.4932C24.5159 18.7095 24.4852 18.94 24.3719 19.134L23.9448 19.8653C23.8316 20.0593 23.645 20.2008 23.4262 20.2588C23.2074 20.3167 22.9743 20.2864 22.7781 20.1744L13.1419 14.6735L10.372 19.4279C10.1017 19.8914 9.66352 20.2361 9.14601 20.3924C8.6285 20.5487 8.07028 20.5049 7.58418 20.2698L7.4552 20.2023L1.55153 16.8227C1.06209 16.5424 0.705103 16.0816 0.558904 15.5414C0.412706 15.0012 0.489243 14.4258 0.771718 13.9413L7.58759 2.24272ZM9.59392 3.87425L3.20511 14.8407L8.3657 17.7947L14.7545 6.8274L9.59392 3.87425Z" fill="white"/>
  </g>
  <defs>
    <clipPath id="clip0_3460_3602">
      <rect width="24" height="24" fill="white"/>
    </clipPath>
  </defs>
</svg>
