<svg xmlns="http://www.w3.org/2000/svg" width="796" height="1429" viewBox="0 0 796 1429" fill="none">
  <g filter="url(#filter0_d_1261_1770)">
    <path d="M94 92C94 85.3726 99.3726 80 106 80H690C696.627 80 702 85.3726 702 92V1369C702 1375.63 696.627 1381 690 1381H106C99.3726 1381 94 1375.63 94 1369V92Z" fill="#181A20"/>
    <path d="M94.5 92C94.5 85.6488 99.6487 80.5 106 80.5H690C696.351 80.5 701.5 85.6487 701.5 92V1369C701.5 1375.35 696.351 1380.5 690 1380.5H106C99.6487 1380.5 94.5 1375.35 94.5 1369V92Z" stroke="#252831"/>
  </g>
  <defs>
    <filter id="filter0_d_1261_1770" x="0" y="0" width="796" height="1489" filterUnits="userSpaceOnUse" color-interpolation-filters="sRGB">
      <feFlood flood-opacity="0" result="BackgroundImageFix"/>
      <feColorMatrix in="SourceAlpha" type="matrix" values="0 0 0 0 0 0 0 0 0 0 0 0 0 0 0 0 0 0 127 0" result="hardAlpha"/>
      <feOffset dy="14"/>
      <feGaussianBlur stdDeviation="47"/>
      <feComposite in2="hardAlpha" operator="out"/>
      <feColorMatrix type="matrix" values="0 0 0 0 0 0 0 0 0 0 0 0 0 0 0 0 0 0 0.05 0"/>
      <feBlend mode="normal" in2="BackgroundImageFix" result="effect1_dropShadow_1261_1770"/>
      <feBlend mode="normal" in="SourceGraphic" in2="effect1_dropShadow_1261_1770" result="shape"/>
    </filter>
  </defs>
</svg>
