<svg width="32" height="32" viewBox="0 0 32 32" fill="none" xmlns="http://www.w3.org/2000/svg">
<rect width="32" height="32" fill="#2A2A2A"/>
<g clip-path="url(#clip0_0_1)">
<rect width="1920" height="2126" transform="translate(-795 -265)" fill="#181A20"/>
<rect x="-23.5" y="-23.5" width="376" height="194" rx="2.5" stroke="#252831"/>
<path d="M18.2481 15.7253C18.3385 15.3683 18.3346 14.9939 18.2368 14.6389C18.1391 14.2838 17.9508 13.9603 17.6904 13.6999C17.43 13.4395 17.1064 13.2512 16.7514 13.1534C16.3963 13.0556 16.022 13.0517 15.665 13.1421C14.9228 13.3253 14.3156 13.9325 14.1324 14.6747C14.042 15.0317 14.0459 15.406 14.1437 15.7611C14.2414 16.1161 14.4298 16.4397 14.6902 16.7001C14.9506 16.9605 15.2741 17.1488 15.6292 17.2466C15.9842 17.3443 16.3586 17.3482 16.7156 17.2578C17.4674 17.0747 18.0746 16.4674 18.2481 15.7253Z" fill="white"/>
<path d="M10.4313 22.1157C10.2578 22.1157 10.0747 22.0482 9.93976 21.9229C9.01415 21.0634 8.27545 20.0225 7.76968 18.865C7.26391 17.7075 7.00191 16.4583 7 15.1952C7 10.1253 11.1253 6 16.1952 6C21.2651 6 25.3904 10.1253 25.3904 15.1952C25.3904 17.759 24.359 20.1301 22.4892 21.894C22.2 22.1639 21.7373 22.1542 21.4675 21.8651C21.1976 21.5759 21.2072 21.1133 21.4964 20.8434C22.2722 20.1239 22.8903 19.2513 23.3117 18.2808C23.733 17.3103 23.9486 16.2629 23.9446 15.2048C23.9446 10.9349 20.4651 7.45542 16.1952 7.45542C11.9253 7.45542 8.44578 10.9349 8.44578 15.2048C8.44578 17.3831 9.32289 19.388 10.9229 20.8723C11.212 21.1422 11.2313 21.6048 10.9614 21.894C10.8211 22.0352 10.6304 22.1149 10.4313 22.1157Z" fill="white"/>
<path d="M20.0507 19.5422C19.9101 19.5421 19.7726 19.5007 19.6552 19.4232C19.5379 19.3458 19.4458 19.2356 19.3904 19.1064C19.335 18.9771 19.3187 18.8345 19.3436 18.6961C19.3684 18.5577 19.4333 18.4296 19.5302 18.3277C20.3302 17.4795 20.7736 16.3615 20.7736 15.2048C20.7736 12.6795 18.7206 10.6362 16.2049 10.6362C14.994 10.6387 13.8334 11.1209 12.9772 11.9771C12.1209 12.8333 11.6388 13.9939 11.6362 15.2048C11.6362 16.3711 12.0796 17.4795 12.8796 18.3277C13.1495 18.6169 13.1398 19.0795 12.8507 19.3494C12.5615 19.6289 12.0989 19.6096 11.829 19.3205C10.7782 18.2076 10.192 16.7354 10.1904 15.2048C10.1904 11.8892 12.8892 9.19037 16.2049 9.19037C19.5206 9.19037 22.2193 11.8892 22.2193 15.2048C22.2193 16.7374 21.641 18.2024 20.5808 19.3205C20.4404 19.4617 20.2498 19.5414 20.0507 19.5422ZM14.5567 20.853L13.1687 22.5783C12.0699 23.9566 13.0531 26 14.8073 26H17.5736C19.3374 26 20.3206 23.9566 19.2121 22.588L17.8242 20.8627C17.63 20.6154 17.3824 20.4153 17.0998 20.2773C16.8173 20.1394 16.5072 20.0673 16.1928 20.0664C15.8784 20.0655 15.5678 20.1358 15.2845 20.272C15.0011 20.4082 14.7523 20.6069 14.5567 20.853Z" fill="white"/>
</g>
<defs>
<clipPath id="clip0_0_1">
<rect width="1920" height="2126" fill="white" transform="translate(-795 -265)"/>
</clipPath>
</defs>
</svg>
