<svg width="32" height="32" viewBox="0 0 32 32" fill="none" xmlns="http://www.w3.org/2000/svg">
<rect width="32" height="32" fill="#2A2A2A"/>
<g id="Airdrop_My Airdrop_Twitter Airdrop" clip-path="url(#clip0_0_1)">
<rect width="1920" height="1529" transform="translate(-394 -1010)" fill="#181A20"/>
<g id="Group 2048133790">
<g id="Address Airdrop">
<g id="Group 2048133832">
<g id="k&#231;&#186;&#191;icon 1">
<path id="Vector" d="M10.5989 24.6801H7.35871C7.02351 24.6801 6.80005 24.4566 6.80005 24.1214V18.4231C6.80005 18.0879 7.02351 17.8644 7.35871 17.8644H10.5989C10.9341 17.8644 11.1576 18.0879 11.1576 18.4231V24.1214C11.1576 24.4566 10.9341 24.6801 10.5989 24.6801ZM17.638 24.6801H14.3978C14.0626 24.6801 13.8392 24.4566 13.8392 24.1214V5.23871C13.8392 4.90352 14.0626 4.68005 14.3978 4.68005H17.638C17.9732 4.68005 18.1967 4.90352 18.1967 5.23871V24.1773C18.1967 24.4566 17.9174 24.6801 17.638 24.6801ZM24.6771 24.6801H21.4369C21.1017 24.6801 20.8783 24.4566 20.8783 24.1214V11.8868C20.8783 11.5516 21.1017 11.3281 21.4369 11.3281H24.6771C25.0123 11.3281 25.2358 11.5516 25.2358 11.8868V24.1214C25.2358 24.4566 24.9565 24.6801 24.6771 24.6801Z" fill="white"/>
</g>
</g>
</g>
</g>
</g>
<defs>
<clipPath id="clip0_0_1">
<rect width="1920" height="1529" fill="white" transform="translate(-394 -1010)"/>
</clipPath>
</defs>
</svg>
