<svg width="32" height="32" viewBox="0 0 32 32" fill="none" xmlns="http://www.w3.org/2000/svg">
<rect width="32" height="32" fill="#2A2A2A"/>
<g clip-path="url(#clip0_0_1)">
<rect width="1920" height="2126" transform="translate(-1196 -265)" fill="#181A20"/>
<rect x="-23.5" y="-23.5" width="376" height="194" rx="2.5" stroke="#252831"/>
<path d="M25.4792 9.3362L23.3028 7.26536C23.2442 7.2065 23.1746 7.1598 23.0979 7.12794C23.0212 7.09607 22.939 7.07967 22.856 7.07967C22.7729 7.07967 22.6907 7.09607 22.614 7.12794C22.5373 7.1598 22.4677 7.2065 22.4091 7.26536L7.58206 22.3918C7.38644 22.5912 7.23224 22.8274 7.12833 23.0867C7.02442 23.3461 6.97286 23.6234 6.97662 23.9027C6.98039 24.1821 7.0394 24.4579 7.15026 24.7143C7.26112 24.9708 7.42163 25.2027 7.62255 25.3968C8.03037 25.7909 8.57751 26.0076 9.14456 25.9998C9.71161 25.9919 10.2525 25.7601 10.6493 25.3549L25.4764 10.2285C25.5353 10.1702 25.5822 10.1008 25.6143 10.0244C25.6464 9.9479 25.6631 9.86585 25.6634 9.78293C25.6636 9.70001 25.6475 9.61785 25.6159 9.54118C25.5843 9.46451 25.5379 9.39485 25.4792 9.3362ZM21.6933 12.2386L20.5162 11.0614L22.908 8.66375C22.9153 8.65614 22.9241 8.65008 22.9338 8.64595C22.9435 8.64181 22.9539 8.63968 22.9644 8.63968C22.975 8.63968 22.9854 8.64181 22.9951 8.64595C23.0048 8.65008 23.0135 8.65614 23.0208 8.66375L24.0866 9.72954C24.1155 9.75991 24.1155 9.80908 24.0866 9.83945L21.6933 12.2386ZM14.8358 10.428L11.9783 11.9956L10.4179 14.8575L8.85609 11.9942L6 10.4309L8.85464 8.86332L10.4179 6L11.9797 8.86476L14.8358 10.4295V10.428ZM19.7193 21.2031L21.6138 20.6492L21.0585 22.5465L21.6138 24.4453L19.7193 23.8871L17.8249 24.4438L18.3831 22.5451L17.8264 20.6478L19.7208 21.2045L19.7193 21.2031ZM24.3527 16.0375L26.2457 15.4837L25.6933 17.3824L26.2457 19.2797L24.3513 18.7201L22.4583 19.2797L23.0165 17.3824L22.4583 15.4837L24.3527 16.0375Z" fill="white"/>
</g>
<defs>
<clipPath id="clip0_0_1">
<rect width="1920" height="2126" fill="white" transform="translate(-1196 -265)"/>
</clipPath>
</defs>
</svg>
