<svg width="32" height="32" viewBox="0 0 32 32" fill="none" xmlns="http://www.w3.org/2000/svg">
<rect width="32" height="32" fill="#2A2A2A"/>
<g id="Airdrop_My Airdrop_Twitter Airdrop" clip-path="url(#clip0_0_1)">
<rect width="1920" height="1529" transform="translate(-394 -1134)" fill="#181A20"/>
<g id="Group 2048133790">
<g id="Address Airdrop">
<g id="Group 2048133832">
<g id="&#228;&#186;&#164;&#230;&#152;&#147;(4) 1">
<path id="Vector" d="M2.9136 17.52V19.16L5.2752 24.32L7.024 23.1792C7.024 23.1792 7.7712 22.6784 8.656 23.0512C9.5424 23.424 14.448 26.048 14.448 26.048C14.448 26.048 16.0368 26.912 17.6272 26.048C19.2176 25.184 27.9264 19.392 27.9264 19.392C27.9264 19.392 29.1984 18.656 29.0784 17.776C28.9616 16.9296 27.9216 16.4864 27.0656 16.7632C26.3856 16.9824 25.7152 17.3712 25.7024 17.3424C25.6912 17.3136 25.6896 17.1712 25.6352 16.8544C25.5344 16.264 24.1456 15.544 22.5456 16.896C22.4544 16.9744 21.9376 15.7696 20.7216 16.1664C19.6704 16.5088 17.232 18.1232 17.232 18.1232C17.232 18.1232 20.0368 18.1504 20.528 18.304C21.0192 18.4592 22.3632 19.088 21.9056 20.7728C21.472 22.3712 19.088 22.3152 19.088 22.3152L14.6512 22.3584C14.6512 22.3584 13.4672 22.3056 12.4 21.5264C11.3328 20.7472 11.056 20.3536 11.056 20.3536C11.056 20.3536 12.624 21.1536 14.288 21.1968C15.952 21.24 19.3552 21.2176 19.3552 21.2176C19.3552 21.2176 20.8272 21.1648 20.88 20.1936C20.9328 19.2224 19.2912 19.2224 19.2912 19.2224C19.2912 19.2224 17.4784 19.2048 16.7296 19.1328C15.9808 19.0608 14.5328 18.592 12.848 17.3344C11.1632 16.0768 9.7968 14.9664 7.8992 15.4784C6.0016 15.9904 2.9136 17.52 2.9136 17.52Z" fill="white"/>
<path id="Vector_2" d="M15.6112 4.19678C12.2208 4.19678 9.472 6.94558 9.472 10.336C9.472 13.7264 12.2208 16.4752 15.6112 16.4752C19.0016 16.4752 21.7504 13.7264 21.7504 10.336C21.7504 6.94558 19.0016 4.19678 15.6112 4.19678ZM17.9392 12.0224C17.6416 13.4 16.0976 13.5712 16.0976 13.5712L16.1008 14.3728H15.4416C15.4416 14.3728 15.44 13.6224 15.44 13.56C13.8352 13.4352 13.536 11.8544 13.544 11.6272C13.544 11.6144 13.5536 11.6032 13.568 11.6032C13.8272 11.5952 14.7376 11.4576 14.7376 11.4576C14.7376 11.4576 14.8464 12.2416 15.4512 12.4896C15.4512 12.3376 15.4544 10.6304 15.4544 10.536C15.4256 10.4816 14.1152 10.3424 13.784 9.02718C13.6992 8.69118 13.6992 8.33918 13.7904 8.00478C14.1344 6.73278 15.4464 6.68798 15.4464 6.68798L15.4432 6.17918L16.0944 6.19038L16.1024 6.67678C16.1024 6.67678 17.4912 6.64478 17.8112 8.25438C17.6464 8.27998 16.8736 8.37438 16.6464 8.39838C16.4576 7.70878 16.0944 7.65758 16.0944 7.65758L16.0992 9.44958C16.0992 9.44958 17.696 9.63998 17.9568 10.9184C18.0016 11.1344 18.0048 11.7984 17.9392 12.0224Z" fill="white"/>
<path id="Vector_3" d="M16.1072 10.752V12.4688C16.1072 12.4688 16.6736 12.5296 16.8496 11.872C16.8656 11.7776 16.8864 11.5472 16.8592 11.3904C16.736 10.8448 16.1072 10.752 16.1072 10.752ZM15.4432 7.65918V9.21918C15.4432 9.21918 14.9312 9.08638 14.8528 8.63838C14.8448 8.57278 14.8352 8.40638 14.856 8.26398C14.9472 7.76478 15.4432 7.65918 15.4432 7.65918Z" fill="white"/>
</g>
</g>
</g>
</g>
</g>
<defs>
<clipPath id="clip0_0_1">
<rect width="1920" height="1529" fill="white" transform="translate(-394 -1134)"/>
</clipPath>
</defs>
</svg>
