<svg width="32" height="32" viewBox="0 0 32 32" fill="none" xmlns="http://www.w3.org/2000/svg">
<rect width="32" height="32" fill="#2A2A2A"/>
<g clip-path="url(#clip0_0_1)">
<rect width="1920" height="2126" transform="translate(-394 -265)" fill="#181A20"/>
<rect x="-23.5" y="-23.5" width="376" height="194" rx="2.5" stroke="#252831"/>
<path d="M26 9.89299C25.2517 10.2213 24.4581 10.4347 23.646 10.526C24.5002 10.028 25.1423 9.23431 25.451 8.29499C24.6419 8.76479 23.7596 9.09539 22.841 9.27299C22.4548 8.86905 21.9905 8.54789 21.4764 8.32904C20.9622 8.11019 20.4088 7.99824 19.85 7.99999C17.582 7.99999 15.748 9.80599 15.748 12.037C15.748 12.354 15.783 12.663 15.858 12.957C14.2327 12.8789 12.6414 12.4637 11.185 11.738C9.72862 11.0122 8.43902 9.9916 7.398 8.74099C7.0343 9.35564 6.84261 10.0568 6.843 10.771C6.843 12.174 7.566 13.403 8.67 14.131C8.01975 14.1108 7.38332 13.9382 6.812 13.627V13.677C6.812 15.634 8.223 17.262 10.102 17.637C9.759 17.73 9.392 17.781 9.02 17.781C8.757 17.781 8.5 17.751 8.246 17.71C8.766 19.314 10.286 20.48 12.077 20.517C10.3476 21.8468 8.1661 22.4463 6 22.187C7.88251 23.3752 10.0639 24.0039 12.29 24C19.836 24 23.96 17.847 23.96 12.514C23.96 12.341 23.954 12.162 23.945 11.989C24.7483 11.417 25.444 10.7074 26 9.89299Z" fill="white"/>
</g>
<defs>
<clipPath id="clip0_0_1">
<rect width="1920" height="2126" fill="white" transform="translate(-394 -265)"/>
</clipPath>
</defs>
</svg>
