<svg xmlns="http://www.w3.org/2000/svg" width="16" height="16" viewBox="0 0 16 16" fill="none">
  <path d="M13 4.94651C12.6258 5.11064 12.229 5.21734 11.823 5.26301C12.2501 5.01401 12.5712 4.61717 12.7255 4.14751C12.3209 4.38241 11.8798 4.54771 11.4205 4.63651C11.2274 4.43454 10.9953 4.27396 10.7382 4.16454C10.4811 4.05511 10.2044 3.99914 9.925 4.00001C8.791 4.00001 7.874 4.90301 7.874 6.01851C7.874 6.17701 7.8915 6.33151 7.929 6.47851C7.11634 6.43944 6.32068 6.23188 5.5925 5.86899C4.86431 5.5061 4.21951 4.99582 3.699 4.37051C3.51715 4.67784 3.4213 5.02841 3.4215 5.38551C3.4215 6.08701 3.783 6.70151 4.335 7.06551C4.00987 7.05542 3.69166 6.9691 3.406 6.81351V6.83851C3.406 7.81701 4.1115 8.63101 5.051 8.81851C4.8795 8.86501 4.696 8.89051 4.51 8.89051C4.3785 8.89051 4.25 8.87551 4.123 8.85501C4.383 9.65701 5.143 10.24 6.0385 10.2585C5.17379 10.9234 4.08305 11.2231 3 11.0935C3.94125 11.6876 5.03195 12.002 6.145 12C9.918 12 11.98 8.92351 11.98 6.25701C11.98 6.17051 11.977 6.08101 11.9725 5.99451C12.3741 5.70853 12.722 5.35373 13 4.94651Z" fill="#0184FF"/>
</svg>