<svg width="12" height="12" viewBox="0 0 12 12" fill="none" xmlns="http://www.w3.org/2000/svg">
<path d="M6 0C9.31364 0 12 2.68636 12 6C12 9.31364 9.31364 12 6 12C2.68636 12 0 9.31364 0 6C0 2.68636 2.68636 0 6 0ZM7.41218 8.18182H4.55073C4.70345 9.07309 4.94891 9.96491 5.28709 10.8578C5.74637 10.9245 6.21275 10.9264 6.67255 10.8633C7.0054 9.99572 7.25312 9.09786 7.41218 8.18236V8.18182ZM10.3985 8.18236H8.51727C8.3921 8.96963 8.2046 9.7457 7.95655 10.5033C9.01802 10.0407 9.88262 9.21896 10.3985 8.18236ZM3.44509 8.18236H1.60145C2.11027 9.20452 2.95818 10.0183 4.00036 10.4847C3.75487 9.73311 3.5692 8.96326 3.44509 8.18236ZM3.31582 4.90964H1.21255C1.04944 5.62776 1.04944 6.37333 1.21255 7.09145H3.31636C3.25915 6.36531 3.25915 5.63578 3.31636 4.90964H3.31582ZM7.55236 4.90964H4.41055C4.34924 5.63562 4.34924 6.36547 4.41055 7.09145H7.55182C7.6139 6.36551 7.6139 5.63558 7.55182 4.90964H7.55236ZM10.7875 4.90964H8.64655C8.70315 5.63581 8.70315 6.36528 8.64655 7.09145H10.7875C10.9506 6.37333 10.9506 5.62776 10.7875 4.90964ZM3.97582 1.52509L3.96436 1.53109C2.93813 2.00047 2.10404 2.80779 1.60145 3.81818H3.44291C3.55964 3.05945 3.73745 2.29473 3.97582 1.52564V1.52509ZM6 1.09091C5.75003 1.09074 5.50041 1.10953 5.25327 1.14709C4.938 2.01456 4.70177 2.90874 4.54745 3.81873H7.41491C7.26027 2.9071 7.02368 2.01128 6.708 1.14218C6.47357 1.10786 6.23693 1.09072 6 1.09091ZM7.98 1.50655L8.02964 1.66636C8.24673 2.388 8.40982 3.10582 8.52 3.81873L10.3985 3.81818C9.88672 2.78929 9.03141 1.9716 7.98055 1.50655H7.98Z" fill="#7A89A2"/>
</svg>
