<svg width="12" height="12" viewBox="0 0 12 12" fill="none" xmlns="http://www.w3.org/2000/svg">
<path d="M6 12C2.6862 12 0 9.3138 0 6C0 2.6862 2.6862 0 6 0C9.3138 0 12 2.6862 12 6C12 9.3138 9.3138 12 6 12ZM9.1509 4.6959V4.4889C9.4422 4.2822 9.6918 3.9927 9.9 3.7032C9.6504 3.8274 9.3591 3.9102 9.0675 3.9513C9.3591 3.786 9.6087 3.4551 9.7335 3.1242C9.4422 3.2895 9.1509 3.4137 8.8179 3.4962C8.5683 3.2067 8.1519 3 7.7358 3C6.9036 3 6.2793 3.6618 6.2793 4.5306C6.2793 4.6545 6.2793 4.7787 6.3207 4.9026C5.1138 4.8201 4.0317 4.1997 3.2826 3.2481C3.0747 3.4137 2.9916 3.6621 2.9916 3.9513C2.9916 4.4892 3.2409 4.9854 3.6573 5.2752C3.4074 5.2752 3.1995 5.1924 2.9913 5.0682C2.9913 5.8128 3.4908 6.4746 4.1568 6.5988C4.0317 6.6402 3.9069 6.6402 3.7818 6.6402C3.6987 6.6402 3.6156 6.6402 3.4908 6.5988C3.6573 7.2192 4.2399 7.6743 4.86421 7.6743C4.35113 8.10426 3.70242 8.33871 3.03301 8.3361C2.90821 8.3361 2.78311 8.3361 2.70001 8.2947C3.36601 8.7498 4.11511 8.9979 4.94732 8.9979C7.65272 9.0807 9.1509 6.72271 9.1509 4.6959Z" fill="#7A89A2"/>
</svg>
