<svg width="72" height="72" viewBox="0 0 72 72" fill="none" xmlns="http://www.w3.org/2000/svg">
<circle cx="36" cy="36" r="35.5" fill="#2B3139" stroke="#2B3139"/>
<g clip-path="url(#clip0_2471_2243)">
<path d="M36.1013 44.6061C32.4531 44.6061 29.4878 41.6905 29.4878 38.1036C29.4878 34.5166 32.4531 31.6011 36.1013 31.6011C39.7494 31.6011 42.7147 34.5166 42.7147 38.1028C42.7147 41.6873 39.7494 44.6061 36.1013 44.6061ZM36.1013 33.8869C33.7355 33.8869 31.8136 35.7778 31.8136 38.1036C31.8136 40.4293 33.7355 42.3195 36.1013 42.3195C38.467 42.3195 40.3889 40.4293 40.3889 38.1036C40.3889 35.7778 38.467 33.8877 36.1013 33.8877V33.8869ZM46.0431 31.5007H43.2817C42.6421 31.5007 42.1184 30.9868 42.1184 30.3578C42.1184 29.7289 42.6421 29.2141 43.2825 29.2141H46.0439C46.6834 29.2141 47.2064 29.728 47.2064 30.3578C47.2064 30.986 46.6834 31.5007 46.0439 31.5007H46.0431ZM51.1661 45.9105H48.4055V43.1948C48.4055 42.5667 47.8826 42.0519 47.2431 42.0519C46.6035 42.0519 46.0806 42.5658 46.0806 43.1948V45.9105H43.3184C42.6788 45.9105 42.1559 46.4244 42.1559 47.0534C42.1559 47.6824 42.6788 48.1971 43.3184 48.1971H46.0806V50.912C46.0806 51.541 46.6035 52.0557 47.2431 52.0557C47.8826 52.0557 48.4055 51.5418 48.4055 50.912V48.1971H51.1677C51.8073 48.1971 52.3302 47.6832 52.3302 47.0534C52.3302 46.4253 51.8073 45.9105 51.1677 45.9105H51.1661Z" fill="white"/>
<path d="M39.6414 50.0726C39.6416 49.9192 39.6116 49.7672 39.553 49.6255C39.4944 49.4837 39.4085 49.3549 39.3 49.2464C39.1916 49.1378 39.0628 49.0518 38.9211 48.9931C38.7794 48.9344 38.6274 48.9043 38.474 48.9044H25.5384C24.6076 48.9044 23.7273 48.5397 23.0633 47.8757C22.7368 47.5518 22.4777 47.1663 22.3011 46.7416C22.1246 46.3169 22.034 45.8614 22.0346 45.4015V31.0251C22.0346 30.0951 22.3993 29.2149 23.0633 28.5509C23.3875 28.2242 23.7732 27.9651 24.1982 27.7885C24.6232 27.612 25.079 27.5214 25.5392 27.5222H28.0615L29.401 23.7778C29.4417 23.6645 29.5164 23.5665 29.6151 23.4974C29.7137 23.4283 29.8313 23.3915 29.9517 23.392H42.0806C42.3253 23.392 42.548 23.5486 42.632 23.7786L43.9674 27.5189H46.4898C47.4206 27.5189 48.3008 27.8836 48.9649 28.5468C49.2912 28.8717 49.5501 29.2579 49.7267 29.6833C49.9032 30.1086 49.9939 30.5646 49.9936 31.0251V38.2316C49.9936 38.8777 50.5156 39.399 51.1617 39.399C51.3151 39.3991 51.4669 39.369 51.6086 39.3104C51.7503 39.2517 51.879 39.1658 51.9874 39.0573C52.0958 38.9489 52.1818 38.8202 52.2405 38.6785C52.2991 38.5368 52.3292 38.385 52.3291 38.2316V31.0251C52.3292 30.2582 52.1782 29.4988 51.8847 28.7903C51.5913 28.0818 51.1611 27.4381 50.6187 26.8959C50.0764 26.3537 49.4325 25.9237 48.7239 25.6304C48.0153 25.3371 47.2559 25.1863 46.489 25.1866H45.6129L44.8322 22.9939C44.6294 22.427 44.2565 21.9366 43.7644 21.5898C43.2723 21.243 42.685 21.0567 42.083 21.0564H29.9484C29.3463 21.0562 28.7588 21.2423 28.2666 21.5892C27.7744 21.9361 27.4016 22.4267 27.1993 22.9939L26.4153 25.1866H25.5384C24.7715 25.1863 24.012 25.3371 23.3034 25.6304C22.5948 25.9237 21.951 26.3537 21.4086 26.8959C20.8663 27.4381 20.4361 28.0818 20.1426 28.7903C19.8491 29.4988 19.6981 30.2582 19.6982 31.0251V45.4015C19.6981 46.1684 19.8491 46.9277 20.1426 47.6363C20.4361 48.3448 20.8663 48.9885 21.4086 49.5307C21.951 50.0729 22.5948 50.5029 23.3034 50.7962C24.012 51.0895 24.7715 51.2403 25.5384 51.2399H38.474C39.1161 51.2399 39.6414 50.7146 39.6414 50.0726Z" fill="white"/>
</g>
<defs>
<clipPath id="clip0_2471_2243">
<rect width="32.6038" height="32.6038" fill="white" transform="translate(19.6982 19.698)"/>
</clipPath>
</defs>
</svg>
