<svg xmlns="http://www.w3.org/2000/svg" width="108" height="108" viewBox="0 0 108 108" fill="none">
  <path opacity="0.6" d="M56.6475 31.8633L97.8899 36.7927L56.6475 45.3787L13.5657 38.5416L56.6475 31.8633ZM16.7239 58.0832L16.7853 78.1342L52.0476 93.558L52.0632 59.0851L48.9818 68.2756L16.7232 58.0832H16.7239Z" fill="#1E2329"/>
  <path opacity="0.2" d="M10.6521 102.032C10.6521 104.957 30.4899 107.328 54.961 107.328C79.4313 107.328 99.2691 104.957 99.2691 102.032C99.2691 99.1083 79.4313 96.7373 54.961 96.7373C30.4891 96.7373 10.6521 99.1085 10.6521 102.032Z" fill="black"/>
  <path d="M94.5163 29.9554C94.5163 30.3771 94.6779 30.7816 94.9654 31.0798C95.253 31.378 95.643 31.5455 96.0496 31.5455C96.4562 31.5455 96.8462 31.378 97.1338 31.0798C97.4213 30.7816 97.5829 30.3771 97.5829 29.9554C97.5829 29.5337 97.4213 29.1292 97.1338 28.831C96.8462 28.5328 96.4562 28.3652 96.0496 28.3652C95.643 28.3652 95.253 28.5328 94.9654 28.831C94.6779 29.1292 94.5163 29.5337 94.5163 29.9554ZM19.0118 65.4785L19.3072 64.5751L47.3615 74.4329L47.0662 75.3355L19.0118 65.4785ZM18.9978 73.4206L19.3242 72.5284L46.771 83.3413L46.4445 84.2328L18.9978 73.4206Z" fill="#1E2329"/>
  <path d="M106.813 54.2983L97.7671 36.8088L97.4142 36.5541L65.1563 32.8175L57.0151 31.8634H56.8619L36.3333 34.7092C35.8185 34.2422 35.3367 33.7374 34.8917 33.1988C33.527 31.5451 32.638 29.7009 32.1935 27.6811C33.3437 27.9197 34.5086 27.9044 35.6891 27.6336C39.5529 26.7115 41.6527 24.5169 41.4226 21.6074C41.2082 18.7615 38.6787 16.0107 36.118 15.8358C32.8526 15.6125 31.7179 19.3337 31.3806 20.9553C30.982 22.8477 30.8754 24.6442 31.0433 26.3457C21.7675 22.514 16.3098 0.602957 16.2483 0.348145L15.3592 0.586715C15.3748 0.666555 17.2142 8.13944 20.5871 15.1676C22.5648 19.3183 24.6965 22.4978 26.9035 24.6281C28.3148 25.9957 29.7557 26.9178 31.2119 27.4272C31.6417 29.7806 32.638 31.9269 34.2171 33.8346C34.5241 34.2006 34.8311 34.5503 35.1676 34.884L12.1699 38.0645V38.5415L11.8941 38.3981L4.53461 54.1404L4.81122 54.8077L11.7712 57.0024L12.2927 79.9628L12.5538 80.3763L56.555 102.478L56.6476 102.271L56.9537 102.478L98.0429 81.8069L98.3032 81.3782V58.2742L106.598 54.9666L106.813 54.2992V54.2983ZM32.2705 21.1625C32.8836 18.2207 34.2327 16.6619 36.0566 16.7892C38.1572 16.9327 40.3191 19.3175 40.5034 21.6872C40.6867 24.1035 38.9087 25.8847 35.4746 26.7115C34.3332 26.9906 33.1431 26.974 32.0093 26.6632C31.7637 24.9465 31.8562 23.1024 32.2697 21.1625H32.2705ZM36.0108 35.7271C40.9479 40.1157 48.5979 42.0081 55.0372 42.0081C55.6201 42.0081 56.1874 41.992 56.7547 41.9597L56.7081 41.0062C48.399 41.4511 41.484 38.8438 37.2985 35.5361L56.8922 32.8175L65.0335 33.7557L94.4557 37.2214L56.6476 45.0288L15.4518 38.5408L36.0108 35.7271ZM12.5685 39.0824L56.1414 45.9355L48.6445 67.6081L5.57739 54.0606L12.5685 39.0824ZM17.1838 58.7352L48.7665 68.6567L49.3338 68.3552L51.5874 61.8357L51.5113 92.7624L17.1683 77.7367L17.1838 58.7352ZM12.6611 57.3044L16.2638 58.4328L16.2483 78.3726L52.4315 94.1937L52.5232 59.1647L56.2644 48.3679V101.317L13.1817 79.6767L12.6611 57.3046V57.3044ZM97.3528 81.1072L57.1837 101.317V48.4155L64.8804 71.0585L65.4788 71.3445L97.3528 58.6401V81.1072ZM65.5861 70.2792L57.3058 45.8881L97.1533 37.6511L105.754 54.2669L65.5853 70.2792H65.5861ZM99.9586 21.5276C101.117 21.5257 102.227 21.0478 103.047 20.1985C103.866 19.3492 104.327 18.1978 104.329 16.9965C104.327 15.7952 103.866 14.6437 103.047 13.7942C102.228 12.9448 101.118 12.4666 99.9594 12.4645C98.8011 12.4666 97.6908 12.9448 96.8717 13.7942C96.0527 14.6437 95.5916 15.7952 95.5896 16.9965C95.5919 18.1977 96.053 19.3489 96.872 20.1982C97.6911 21.0475 98.8012 21.5255 99.9594 21.5276H99.9586ZM99.9586 13.4188C100.873 13.42 101.75 13.7973 102.397 14.468C103.044 15.1387 103.408 16.0479 103.409 16.9965C103.408 17.9451 103.044 18.8543 102.397 19.525C101.75 20.1956 100.873 20.5729 99.9586 20.5742C99.0441 20.5725 98.1676 20.1949 97.5211 19.5241C96.8746 18.8533 96.5109 17.9441 96.5097 16.9956C96.5114 16.0474 96.8754 15.1385 97.522 14.468C98.1686 13.7976 99.0451 13.4203 99.9594 13.4188H99.9586ZM4.36753 86.085C3.35113 86.0852 2.37639 86.5039 1.65755 87.2492C0.938699 87.9944 0.534556 89.0051 0.533936 90.0592C0.534151 91.1136 0.938116 92.1248 1.65701 92.8703C2.3759 93.6159 3.35086 94.0349 4.36753 94.0351C5.38407 94.0347 6.35885 93.6156 7.07759 92.8701C7.79633 92.1245 8.20019 91.1135 8.20041 90.0592C8.20001 89.0051 7.79606 87.9943 7.07734 87.2489C6.35862 86.5035 5.38395 86.0845 4.36753 86.0841V86.085ZM4.36753 93.0807C3.98487 93.0809 3.60592 93.0029 3.25235 92.8512C2.89878 92.6994 2.57752 92.4769 2.30693 92.1962C2.03634 91.9156 1.82173 91.5825 1.67537 91.2158C1.52902 90.8491 1.45378 90.4561 1.45397 90.0592C1.45386 89.6624 1.52916 89.2695 1.67555 88.9029C1.82194 88.5363 2.03656 88.2032 2.30714 87.9226C2.57772 87.6421 2.89896 87.4196 3.25249 87.2679C3.60603 87.1162 3.98492 87.0382 4.36753 87.0384C4.75006 87.0383 5.12886 87.1164 5.48228 87.2682C5.83571 87.4199 6.15684 87.6424 6.42732 87.923C6.69781 88.2035 6.91235 88.5366 7.05868 88.9031C7.20502 89.2697 7.28028 89.6625 7.28017 90.0592C7.28037 90.456 7.20518 90.849 7.05888 91.2156C6.91259 91.5822 6.69807 91.9154 6.42758 92.196C6.15708 92.4766 5.83592 92.6992 5.48245 92.851C5.12897 93.0028 4.75012 93.0809 4.36753 93.0808V93.0807Z" fill="#464C55"/>
</svg>
