<svg xmlns="http://www.w3.org/2000/svg" width="24" height="24" viewBox="0 0 24 24" fill="none">
  <path d="M12.2295 1.57794L21.2295 8.55594C21.2748 8.59103 21.3115 8.63605 21.3368 8.68753C21.362 8.73902 21.3751 8.79561 21.375 8.85294V20.9999C21.3751 21.3934 21.2205 21.7711 20.9447 22.0517C20.6689 22.3323 20.2939 22.4933 19.9005 22.4999H19.8735L4.1235 22.4804C3.72594 22.48 3.34479 22.3218 3.06381 22.0406C2.78283 21.7593 2.625 21.378 2.625 20.9804V8.83044C2.62493 8.77311 2.63802 8.71652 2.66324 8.66503C2.68846 8.61355 2.72516 8.56853 2.7705 8.53344L11.7705 1.57794C11.8362 1.5271 11.9169 1.49951 12 1.49951C12.0831 1.49951 12.1638 1.5271 12.2295 1.57794ZM11.9535 4.31244L4.875 9.84144V20.2319L19.125 20.2499V9.86244L11.9535 4.31244ZM13.875 11.9069C13.9745 11.9069 14.0698 11.9464 14.1402 12.0168C14.2105 12.0871 14.25 12.1825 14.25 12.2819V17.5319C14.25 17.6314 14.2105 17.7268 14.1402 17.7971C14.0698 17.8674 13.9745 17.9069 13.875 17.9069H10.125C10.0255 17.9069 9.93016 17.8674 9.85983 17.7971C9.78951 17.7268 9.75 17.6314 9.75 17.5319V12.2819C9.75 12.1825 9.78951 12.0871 9.85983 12.0168C9.93016 11.9464 10.0255 11.9069 10.125 11.9069H13.875Z" fill="#848E9C"/>
</svg>
