<svg xmlns="http://www.w3.org/2000/svg" width="21" height="20" viewBox="0 0 21 20" fill="none">
  <path d="M15.3861 15.8334H5.24131C5.03434 15.8334 4.83585 15.7515 4.6895 15.6056C4.54315 15.4597 4.46094 15.2619 4.46094 15.0556V4.94453C4.46094 4.73825 4.54315 4.54042 4.6895 4.39455C4.83585 4.24869 5.03434 4.16675 5.24131 4.16675H9.92353V5.7223H6.02168V14.2779H14.6058V10.389H16.1665V15.0556C16.1665 15.2619 16.0843 15.4597 15.9379 15.6056C15.7916 15.7515 15.5931 15.8334 15.3861 15.8334ZM14.6058 8.83342V6.81897L8.75297 12.6834L7.62144 11.5556L13.5054 5.7223H11.4843V4.16675H16.1665V8.83342H14.6058Z" fill="white"/>
</svg>
