<svg xmlns="http://www.w3.org/2000/svg" width="24" height="24" viewBox="0 0 24 24" fill="none">
  <path d="M16.9845 16.5945C19.3785 16.5945 21.3345 18.48 21.375 20.835V20.9055H19.125C19.125 19.785 18.192 18.8625 17.019 18.8445H7.0155C5.8395 18.8445 4.8945 19.755 4.875 20.8725V20.907H2.625C2.625 18.5415 4.557 16.632 6.945 16.5945H16.9845ZM12 1.875C13.7902 1.875 15.5071 2.58616 16.773 3.85203C18.0388 5.1179 18.75 6.83479 18.75 8.625C18.75 10.4152 18.0388 12.1321 16.773 13.398C15.5071 14.6638 13.7902 15.375 12 15.375C10.2098 15.375 8.4929 14.6638 7.22703 13.398C5.96116 12.1321 5.25 10.4152 5.25 8.625C5.25 6.83479 5.96116 5.1179 7.22703 3.85203C8.4929 2.58616 10.2098 1.875 12 1.875ZM12 4.125C10.8065 4.125 9.66193 4.59911 8.81802 5.44302C7.97411 6.28693 7.5 7.43153 7.5 8.625C7.5 9.81847 7.97411 10.9631 8.81802 11.807C9.66193 12.6509 10.8065 13.125 12 13.125C13.1935 13.125 14.3381 12.6509 15.182 11.807C16.0259 10.9631 16.5 9.81847 16.5 8.625C16.5 7.43153 16.0259 6.28693 15.182 5.44302C14.3381 4.59911 13.1935 4.125 12 4.125Z" fill="#EAECEF"/>
</svg>
