<svg xmlns="http://www.w3.org/2000/svg" width="24" height="24" viewBox="0 0 24 24" fill="none">
  <path d="M10.6155 1.49689C11.0361 1.25297 11.5138 1.12451 12 1.12451C12.4862 1.12451 12.9639 1.25297 13.3845 1.49689L20.3655 5.54539C21.222 6.04039 21.75 6.95989 21.75 7.95289V16.0469C21.75 17.0399 21.222 17.9579 20.3655 18.4544L13.3845 22.5029C12.9639 22.7468 12.4862 22.8753 12 22.8753C11.5138 22.8753 11.0361 22.7468 10.6155 22.5029L3.6345 18.4544C3.21309 18.2095 2.86339 17.8582 2.62041 17.4357C2.37744 17.0132 2.2497 16.5343 2.25 16.0469V7.95289C2.25 6.95989 2.778 6.04189 3.6345 5.54539L10.6155 1.49689ZM12.198 3.56089C12.1379 3.52598 12.0695 3.5076 12 3.5076C11.9305 3.5076 11.8622 3.52598 11.802 3.56089L4.821 7.60789C4.7606 7.64293 4.7105 7.69327 4.67574 7.75384C4.64098 7.8144 4.62279 7.88306 4.623 7.95289V16.0469C4.623 16.1894 4.698 16.3199 4.821 16.3919L11.802 20.4389C11.8622 20.4738 11.9305 20.4922 12 20.4922C12.0695 20.4922 12.1379 20.4738 12.198 20.4389L19.179 16.3919C19.2394 16.3568 19.2895 16.3065 19.3243 16.2459C19.359 16.1854 19.3772 16.1167 19.377 16.0469V7.95289C19.3772 7.88306 19.359 7.8144 19.3243 7.75384C19.2895 7.69327 19.2394 7.64293 19.179 7.60789L12.198 3.56089ZM12.1875 8.62489C13.0329 8.62489 13.8436 8.96071 14.4414 9.55848C15.0392 10.1563 15.375 10.967 15.375 11.8124C15.375 12.6578 15.0392 13.4685 14.4414 14.0663C13.8436 14.6641 13.0329 14.9999 12.1875 14.9999C11.3421 14.9999 10.5314 14.6641 9.9336 14.0663C9.33583 13.4685 9 12.6578 9 11.8124C9 10.967 9.33583 10.1563 9.9336 9.55848C10.5314 8.96071 11.3421 8.62489 12.1875 8.62489ZM12.1875 10.9424C11.9568 10.9424 11.7355 11.034 11.5723 11.1972C11.4092 11.3604 11.3175 11.5816 11.3175 11.8124C11.3175 12.0431 11.4092 12.2644 11.5723 12.4276C11.7355 12.5907 11.9568 12.6824 12.1875 12.6824C12.4182 12.6824 12.6395 12.5907 12.8027 12.4276C12.9658 12.2644 13.0575 12.0431 13.0575 11.8124C13.0575 11.5816 12.9658 11.3604 12.8027 11.1972C12.6395 11.034 12.4182 10.9424 12.1875 10.9424Z" fill="#7A89A2"/>
</svg>
